<svg class="animated" id="freepik_stories-vintage-truck" xmlns="http://www.w3.org/2000/svg" viewBox="0 0 500 500" version="1.1" xmlns:xlink="http://www.w3.org/1999/xlink" xmlns:svgjs="http://svgjs.com/svgjs"><style>svg#freepik_stories-vintage-truck:not(.animated) .animable {opacity: 0;}svg#freepik_stories-vintage-truck.animated #freepik--Sun--inject-185 {animation: 1s 1 forwards cubic-bezier(.36,-0.01,.5,1.38) zoomIn;animation-delay: 0s;}svg#freepik_stories-vintage-truck.animated #freepik--Clouds--inject-185 {animation: 1s 1 forwards cubic-bezier(.36,-0.01,.5,1.38) zoomIn;animation-delay: 0s;}svg#freepik_stories-vintage-truck.animated #freepik--Shadow--inject-185 {animation: 1.5s Infinite  linear floating;animation-delay: 1s;}svg#freepik_stories-vintage-truck.animated #freepik--Truck--inject-185 {animation: 1.0s 1 forwards cubic-bezier(.36,-0.01,.5,1.38) zoomIn,1.5s Infinite  linear floating;animation-delay: 0s,1s;}            @keyframes zoomIn {                0% {                    opacity: 0;                    transform: scale(0.5);                }                100% {                    opacity: 1;                    transform: scale(1);                }            }                    @keyframes floating {                0% {                    opacity: 1;                    transform: translateY(0px);                }                50% {                    transform: translateY(-10px);                }                100% {                    opacity: 1;                    transform: translateY(0px);                }            }        </style><g id="freepik--Windmill--inject-185" class="animable" style="transform-origin: 63.6796px 154.052px;"><g id="freepik--windmill--inject-185" class="animable" style="transform-origin: 63.6796px 154.052px;"><path d="M80,247.4a.58.58,0,0,1-.57-.53L68.09,103.16H59.27L47.92,246.87a.54.54,0,0,1-.61.53.58.58,0,0,1-.53-.62l11.4-144.24a.57.57,0,0,1,.57-.52h9.86a.57.57,0,0,1,.57.52l11.4,144.24a.58.58,0,0,1-.53.62Z" style="fill: rgb(224, 224, 224); transform-origin: 63.68px 174.712px;" id="elac1pegpaqtv" class="animable"></path><path d="M72,146H55.37a.56.56,0,0,1-.5-.3.53.53,0,0,1,0-.57L63,132.31l-6.29-9.88a.59.59,0,0,1,0-.59L63,111l-4.76-8.16a.57.57,0,0,1,.2-.78.58.58,0,0,1,.78.21l4.44,7.6,4.44-7.6a.58.58,0,0,1,.78-.21.57.57,0,0,1,.21.78L64.34,111l6.31,10.81a.57.57,0,0,1,0,.59l-6.28,9.88,8.12,12.79A.57.57,0,0,1,72,146Zm-15.6-1.14H71l-7.28-11.45Zm1.47-22.72,5.81,9.14,5.81-9.14-5.81-10Z" style="fill: rgb(224, 224, 224); transform-origin: 63.7034px 123.995px;" id="elvxgyifgdz" class="animable"></path><path d="M52.88,177.46a.56.56,0,0,1-.49-.86l19.12-31.5a.57.57,0,1,1,1,.6L53.37,177.19A.57.57,0,0,1,52.88,177.46Z" style="fill: rgb(224, 224, 224); transform-origin: 62.4479px 161.139px;" id="elemsylhpmu0h" class="animable"></path><path d="M77.42,214.6H49.94a.56.56,0,0,1-.47-.88L63,193.24l-10.6-16a.59.59,0,0,1,0-.59.58.58,0,0,1,.5-.3H73.47L54.88,145.7a.58.58,0,0,1,.19-.79.57.57,0,0,1,.78.19L75,176.59a.54.54,0,0,1,.07.13h0a.36.36,0,0,1,0,.1h0a.54.54,0,0,1-.09.38l-10.6,16L77.9,213.72a.57.57,0,0,1,0,.58A.56.56,0,0,1,77.42,214.6ZM51,213.47H76.36L63.68,194.28Zm2.94-36,9.74,14.75,9.75-14.75Z" style="fill: rgb(224, 224, 224); transform-origin: 63.6744px 179.714px;" id="elh35j6dheuul" class="animable"></path><path d="M79.71,243.59a.57.57,0,0,1-.4-.16l-29.76-29a.57.57,0,0,1,.79-.81l29.77,29a.57.57,0,0,1-.4,1Z" style="fill: rgb(224, 224, 224); transform-origin: 64.8657px 228.562px;" id="eldjfhs2iee7" class="animable"></path><path d="M47.65,243.59a.58.58,0,0,1-.4-.17.57.57,0,0,1,0-.81l29.76-29a.57.57,0,1,1,.8.81l-29.77,29A.55.55,0,0,1,47.65,243.59Z" style="fill: rgb(224, 224, 224); transform-origin: 62.5411px 228.507px;" id="eldjeajbzjpf" class="animable"></path><rect x="52.24" y="120.52" width="22.88" height="2.54" rx="1.16" style="fill: rgb(224, 224, 224); transform-origin: 63.68px 121.79px;" id="el4ahe1atsqye" class="animable"></rect><path d="M63.68,247.4a.58.58,0,0,1-.57-.57V102.59a.57.57,0,1,1,1.14,0V246.83A.58.58,0,0,1,63.68,247.4Z" style="fill: rgb(224, 224, 224); transform-origin: 63.68px 174.71px;" id="elgmnfo6nd3nj" class="animable"></path><path d="M61.51,80.59a2.17,2.17,0,1,1,2.17,2.17A2.17,2.17,0,0,1,61.51,80.59Z" style="fill: rgb(224, 224, 224); transform-origin: 63.68px 80.59px;" id="elvknqe62c2x" class="animable"></path><path d="M63.68,75.22s-3.52-6.77-2.17-10,3.89-5.62,4.34-4S63.68,75.22,63.68,75.22Z" style="fill: rgb(224, 224, 224); transform-origin: 63.5518px 67.9596px;" id="el17v6uehxii7" class="animable"></path><path d="M60.53,76.25s-6.83-3.41-7.62-6.79-.15-6.83,1.19-5.76S60.53,76.25,60.53,76.25Z" style="fill: rgb(224, 224, 224); transform-origin: 56.5477px 69.8758px;" id="elchirm6okxx8" class="animable"></path><path d="M58.58,78.93s-7.53,1.25-10.15-1S44.28,72.48,46,72.56,58.58,78.93,58.58,78.93Z" style="fill: rgb(224, 224, 224); transform-origin: 51.9254px 75.9174px;" id="elkvrofnvwv0r" class="animable"></path><path d="M58.58,82.25s-5.35,5.44-8.81,5.14-6.55-2-5.11-2.91S58.58,82.25,58.58,82.25Z" style="fill: rgb(224, 224, 224); transform-origin: 51.4389px 84.826px;" id="ely11pj8snh5r" class="animable"></path><path d="M60.53,84.93s-1.14,7.55-4.1,9.34-6.46,2.26-5.85.65S60.53,84.93,60.53,84.93Z" style="fill: rgb(224, 224, 224); transform-origin: 55.52px 90.4171px;" id="els2877dzpao" class="animable"></path><path d="M63.68,86s3.52,6.78,2.17,10-3.89,5.62-4.34,4S63.68,86,63.68,86Z" style="fill: rgb(224, 224, 224); transform-origin: 63.8082px 93.2598px;" id="el37k0jbve04y" class="animable"></path><path d="M66.84,84.93s6.82,3.41,7.61,6.79.16,6.83-1.19,5.75S66.84,84.93,66.84,84.93Z" style="fill: rgb(224, 224, 224); transform-origin: 70.8182px 91.3009px;" id="el4ifhm874bdj" class="animable"></path><path d="M68.78,82.25s7.53-1.26,10.15,1,4.15,5.44,2.43,5.36S68.78,82.25,68.78,82.25Z" style="fill: rgb(224, 224, 224); transform-origin: 75.4346px 85.2556px;" id="el94lrtmzu0as" class="animable"></path><path d="M68.78,78.93s5.36-5.44,8.81-5.14,6.55,2,5.11,2.9S68.78,78.93,68.78,78.93Z" style="fill: rgb(224, 224, 224); transform-origin: 75.9207px 76.354px;" id="el9vq5lt6hw9" class="animable"></path><path d="M66.84,76.25s1.13-7.55,4.1-9.34,6.45-2.26,5.84-.65S66.84,76.25,66.84,76.25Z" style="fill: rgb(224, 224, 224); transform-origin: 71.8451px 70.7629px;" id="el5x739r6n9r3" class="animable"></path></g></g><g id="freepik--Trees--inject-185" class="animable" style="transform-origin: 327.854px 139.583px;"><g id="freepik--Pines--inject-185" class="animable" style="transform-origin: 327.854px 139.583px;"><g id="freepik--Pine--inject-185" class="animable" style="transform-origin: 453.277px 155.265px;"><path d="M430.37,188.81c6.93,5.11,38.66,4.41,45.81,0,.63-2.76.31-8.92-.68-17L467,176.37l7.7-10.79c-1.12-7.85-2.69-16.9-4.53-26.19l-5.27,2.94,4.51-6.76q-.54-2.61-1.09-5.22l-6,3,5.16-6.9c-1.53-7-3.16-13.89-4.8-20.2l-4.79,1.4s1.8-2.7,3.7-5.51c-1.68-6.2-3.35-11.72-4.93-16.09a3.56,3.56,0,0,0-6.71,0c-2.12,5.87-4.43,13.86-6.7,22.81l4.25,7.12-4.93-4.36c-1,4.14-2,8.45-3,12.82l6.8,12.15-8.19-5.72c-1.36,6.41-2.62,12.86-3.73,19l6.65,6.6-7.38-2.37c-.13.75-.26,1.49-.38,2.22l6.81,9.19-7.61-4.18C430.46,174.46,429.5,185,430.37,188.81Z" style="fill: rgb(240, 240, 240); transform-origin: 453.277px 138.033px;" id="elmz5suhhz9fl" class="animable"></path><path d="M451.6,159.34l-9.67-18.19,9.83,12,1.52-56.44,1.18,34.34,6.88-9.94-6.67,16.14,1.2,34.79L469,160,456,177.15l1.1,48.2c0,2-6.88,2-6.88,0l1.34-66Z" style="fill: rgb(224, 224, 224); transform-origin: 455.465px 161.78px;" id="elsbytzetjin" class="animable"></path></g><g id="freepik--pine--inject-185" class="animable" style="transform-origin: 366.632px 127.125px;"><path d="M351.13,155.33c4.68,3.45,26.13,3,31,0,.34-1.46.28-4.32-.08-8.1l-5.57,2,5.18-5.57c-.59-4.86-1.52-10.75-2.68-17L375.81,128l2.74-3.48-.36-1.83-7.49,3.81,6.48-8.82c-1-4.85-2.09-9.7-3.21-14.25l-4.86,4.07,4.21-6.66c-.31-1.22-.62-2.4-.93-3.55l-4.3,2.33,3.52-5.17c-.93-3.3-1.86-6.25-2.73-8.67a2.41,2.41,0,0,0-4.53,0c-1.31,3.62-2.73,8.43-4.13,13.84,1.22,2.85,2.19,5.07,2.19,5.07l-3.1-1.44c-.34,1.38-.68,2.79-1,4.22,1.47,4.51,3.3,10.16,3.3,10.28-.09-.18-2.26-4.06-4-7.18C353.36,129.35,350,150.39,351.13,155.33Z" style="fill: rgb(240, 240, 240); transform-origin: 366.632px 120.973px;" id="elmxz4pvug1n" class="animable"></path><path d="M365.48,135.4l-6.54-12.31,6.65,8.15,1-38.17.8,23.23,4.66-6.72-4.51,10.91.8,23.53,8.87-8.18-8.75,11.6.74,21.59c0,1.37-4.64,1.37-4.64,0l.9-33.63Z" style="fill: rgb(224, 224, 224); transform-origin: 368.075px 131.564px;" id="elvkb0vn82dvf" class="animable"></path></g><g id="freepik--pine--inject-185" class="animable" style="transform-origin: 195.587px 102.261px;"><path d="M211.74,131.62c-4.88,3.61-27.25,3.11-32.29,0a24.68,24.68,0,0,1-.1-6.17L187,129l-7.3-7.23c.44-4.06,1.15-9,2.06-14.32l2.79,1.49L182,106c.52-3,1.1-6.14,1.73-9.31l4.54,3.66-4-6.08c.13-.66.27-1.32.4-2l6.21,5.12-5.26-9.59c1-4.43,2-8.79,3-12.86L192.64,78c-.1-.18-1.72-2.93-3.34-5.8,1.33-5.08,2.68-9.59,3.93-13.06a2.52,2.52,0,0,1,4.73,0c1.19,3.31,2.47,7.54,3.74,12.32h0l-2.47,5.43,3-3.61c.8,3.06,1.59,6.31,2.35,9.64l-5.3,11.69,6.27-7.41c.1.45.2.91.29,1.38l-2.55,6,3-4.1c1.08,5.09,2.07,10.21,2.93,15.06l-7.36,8.87,8-5.32c.18,1.12.36,2.22.53,3.29l-3.74,4.13,4.18-1.2C211.81,123.15,212.29,129.23,211.74,131.62Z" style="fill: rgb(235, 235, 235); transform-origin: 195.587px 95.8168px;" id="el0mly3rqyy7g" class="animable"></path><path d="M196.78,110.86,203.59,98l-6.93,8.49-1.07-39.78L194.76,91l-4.85-7,4.7,11.38-.84,24.51-9.24-8.52,9.12,12.09-.78,22.5c0,1.43,4.85,1.43,4.85,0l-.94-35Z" style="fill: rgb(224, 224, 224); transform-origin: 194.06px 106.871px;" id="el06pgkzz69jqj" class="animable"></path></g><g id="freepik--pine--inject-185" class="animable" style="transform-origin: 308.415px 117.259px;"><path d="M293.37,140.1c4.54,3.36,25.38,2.89,30.08,0a23.46,23.46,0,0,0,.09-5.75l-7.11,3.26,6.8-6.73c-.41-3.79-1.07-8.38-1.92-13.35l-2.6,1.39,2.37-2.73c-.48-2.8-1-5.72-1.62-8.67l-4.23,3.4,3.78-5.65c-.12-.62-.25-1.23-.37-1.84l-5.79,4.77,4.9-8.93c-.9-4.13-1.86-8.19-2.81-12l-3.78,2.87c.09-.16,1.6-2.73,3.11-5.4C313,80,311.78,75.83,310.61,72.6a2.35,2.35,0,0,0-4.41,0c-1.11,3.07-2.3,7-3.48,11.47h0l2.3,5.06-2.75-3.37c-.74,2.85-1.48,5.88-2.19,9L305,105.65l-5.84-6.91c-.09.42-.19.85-.28,1.29l2.38,5.62-2.77-3.83c-1,4.75-1.93,9.52-2.72,14l6.86,8.27-7.42-5c-.17,1-.34,2.07-.49,3.07l3.48,3.84L294.33,125C293.29,132.21,292.86,137.86,293.37,140.1Z" style="fill: rgb(235, 235, 235); transform-origin: 308.415px 106.755px;" id="elh7pajb1tlti" class="animable"></path><path d="M307.3,120.75,301,108.81l6.45,7.91,1-37.06.77,22.55,4.52-6.52-4.38,10.59.79,22.84,8.6-7.93-8.49,11.26.72,30c0,1.34-4.51,1.34-4.51,0l.87-41.71Z" style="fill: rgb(224, 224, 224); transform-origin: 309.875px 121.558px;" id="elix5bg8qdior" class="animable"></path></g><g id="freepik--pine--inject-185" class="animable" style="transform-origin: 221.198px 113.111px;"><path d="M233.59,133c-3.86,2.38-21,2.76-24.79,0-.34-1.5-.16-4.86.38-9.28l4.86,2.08-4.49-5c.44-3,1-6.4,1.63-9.93l3,1.31-2.78-2.36c.15-.82.31-1.64.47-2.47l5,2.87-4.47-5.42c.55-2.74,1.14-5.5,1.76-8.2L216.67,98l-2.09-3.61c.64-2.62,1.85-7.33,2.5-9.64l2.61,2.08-2.21-3.5c.65-2.25,1.29-4.27,1.9-6a1.93,1.93,0,0,1,3.63,0c.94,2.58,1.94,5.91,2.93,9.67h0l-2,4.61,2.7-2c.7,2.77,1.39,5.7,2.06,8.7h0l-3.39,8.58,4.07-5.45c.24,1.14.48,2.29.71,3.43l-2.42,4.76,2.77-3c.67,3.39,1.27,6.72,1.77,9.83h0l-5.54,8.71,6-5.74c.14.94.27,1.85.39,2.72l-4.19,5.14,4.52-2.42C233.79,128.69,233.9,131.59,233.59,133Z" style="fill: rgb(240, 240, 240); transform-origin: 221.198px 105.493px;" id="elw5k3us8o2rc" class="animable"></path><path d="M227.64,111.72l-5.21,7.37-.54-15.9,2.81-9.5-2.92,6.49-.58-17-.66,24.57-2.92-3.49,2.83,6.72-.37,13.94-6-6L220,129l-.4,20.34c0,1.1,3.72,1.1,3.72,0l-.69-25.49Z" style="fill: rgb(224, 224, 224); transform-origin: 220.86px 116.673px;" id="el1ldsczk4tlv" class="animable"></path></g><g id="freepik--pine--inject-185" class="animable" style="transform-origin: 398.581px 130.467px;"><path d="M378.55,164.34c6.25,3.84,34,4.46,40.05,0a21.08,21.08,0,0,0,.25-5.05l-6.46,2.88,6-9.22c-.38-3.82-1-8.31-1.75-13.21L410.36,143l5.52-8c-.13-.77-.27-1.56-.41-2.36l-10.19,5.91,8.89-13.14c-1.37-7.25-3-14.8-4.62-22l-5.91,4.44,4.71-9.52c-.23-.92-.45-1.82-.67-2.71l-5.84,4.64,4.47-9.94c-1.63-6.19-3.27-11.68-4.8-15.92a3.12,3.12,0,0,0-5.87,0c-1.47,4.07-3,9.28-4.61,15.16l1.76,10.7-3.37-4.47c-1.48,6-2.94,12.38-4.28,18.81l4.41,13.8-5.68-7.54c-1.3,6.49-2.44,12.88-3.35,18.7l2.56,6.26-3.21-2c-.22,1.55-.43,3.05-.6,4.47l5.58,9.28-6.08-4.91C378.2,158.21,378.08,162.32,378.55,164.34Z" style="fill: rgb(235, 235, 235); transform-origin: 398.581px 119.898px;" id="el866mzgc5w65" class="animable"></path><path d="M400,138.57l8.45-15.9L399.9,133.2l-1.32-49.35-1,30-6-8.69,5.83,14.11-1.05,30.42-11.46-10.57,11.31,15-1,33.14c0,1.78,6,1.78,6,0L400,138.57Z" style="fill: rgb(224, 224, 224); transform-origin: 396.675px 136.222px;" id="elf5c1egsnopc" class="animable"></path></g><g id="freepik--pine--inject-185" class="animable" style="transform-origin: 280.233px 99.3358px;"><path d="M263.27,130.22c5.29,3.27,28.78,3.78,33.91,0,.39-1.71.29-5.22-.19-9.86l-5.26,1,4.9-4.24c-.23-1.8-.49-3.73-.79-5.74l-9.75,3.89,9.29-6.87c-1-6.2-2.27-13.1-3.72-20l-7.54,6L291,85.13c-.6-2.75-1.22-5.49-1.85-8.15L283,80.81l5.39-6.88c-.58-2.39-1.17-4.7-1.76-6.9L283,71l2.41-8.41c-.93-3.2-1.83-6.07-2.7-8.46a2.63,2.63,0,0,0-5,0c-1.45,4-3,9.29-4.55,15.26h0L276,75.3l-3.61-2.5c-1.15,4.64-2.27,9.58-3.33,14.55h0l5.54,11.43-6.44-7.05c-.48,2.39-.94,4.77-1.37,7.1l3.58,5.38-4.12-2.41c-.89,5-1.65,9.75-2.19,13.92h0l5.75,9.11-6.4-3.45C263,125.53,262.91,128.64,263.27,130.22Z" style="fill: rgb(240, 240, 240); transform-origin: 280.233px 92.5919px;" id="el4pj7wf88ly" class="animable"></path><path d="M281.47,108.41l7.15-13.47-7.27,8.92-1.12-41.78-.88,25.43-5.09-7.36L279.2,92.1l-.89,25.75-9.7-8.95,9.57,12.69-.81,23.64c0,1.5,5.09,1.5,5.09,0l-1-36.82Z" style="fill: rgb(224, 224, 224); transform-origin: 278.615px 104.218px;" id="elq4t0e4q6tn" class="animable"></path></g></g></g><g id="freepik--Floor--inject-185" class="animable" style="transform-origin: 249.898px 311.909px;"><g id="freepik--floor--inject-185" class="animable" style="transform-origin: 249.898px 311.909px;"><g id="freepik--Shrubbery--inject-185" class="animable" style="transform-origin: 321.533px 211.637px;"><path d="M159.3,171.7A7,7,0,0,1,164,165a6.13,6.13,0,0,1,2.41-.29,1.8,1.8,0,0,1,1.32.56,6.08,6.08,0,0,1,7.83-5.9,7.23,7.23,0,0,1,1-6.15,7.48,7.48,0,0,1,.62-.75,7.16,7.16,0,0,1,6.82-2,5.11,5.11,0,0,1,.46-4.82c1.73-2.55,5.14-3.57,6.95-.81a5,5,0,0,1,3.36-2,2.56,2.56,0,0,1,2.69,2.44c.52-1.46,1.94-1.49,3.23-1.56a4.15,4.15,0,0,1,2,.39c.23.12,1.58.89,1.47,1.23a3.25,3.25,0,0,1,2.3-2.13c.79-.2,2.24-.06,2.17,1.09a2.61,2.61,0,0,1,5.22.17c0-.31,2.77-.95,3.1-1a3.4,3.4,0,0,1,2.59.45,4.26,4.26,0,0,1,2.17,4.4c.15-.77,2.3-.4,2.71-.21a4.35,4.35,0,0,1,1.92,1.7,4.52,4.52,0,0,1,.4,2,2.92,2.92,0,0,1,2-.38c.31.06,1.48.49,1.45.94a4.26,4.26,0,0,1,1.65-3.2,3,3,0,0,1,3.48,0,4,4,0,0,1,2.31-1.74,3,3,0,0,1,3.2,1.32c.6.71,1.69,2.61,1.16,3.59,1.52-2.79,6.55-2.19,7.38.88a5.85,5.85,0,0,1,8.55,1.78c.63-4.35,5.52-4.78,8.79-3.8a10.15,10.15,0,0,1,.22-3.6,3.88,3.88,0,0,1,2.15-2.49c1.87-.75,3.92.41,5.58,1.55a2.14,2.14,0,0,1,1.32-2.78,2.35,2.35,0,0,1,2.79,1.45,2.56,2.56,0,0,1,2.69-2.44,4.64,4.64,0,0,1,3.37,2,4.41,4.41,0,0,1,5.81-2.16,5.4,5.4,0,0,1,2.46,2.38c.24.46,1,2.58.36,3a4.42,4.42,0,0,1,5.39.67,4.47,4.47,0,0,1,.39,5.39c1.18-.08,2.72.16,3.3,1.34a2.3,2.3,0,0,1-.64,2.75,3.77,3.77,0,0,1,6.05,2.59c.42-1.65,1.48-3.42,3.18-3.59,1.51-.16,2.8,1,3.87,2.09-.43-.93-.8-2.16-.05-2.85a2,2,0,0,1,.88-.43,8.06,8.06,0,0,1,4.93.19,8.18,8.18,0,0,1-.17-2.74,2.71,2.71,0,0,1,1.56-2.12c1.44-.54,3,.73,3.61,2.13a6.71,6.71,0,0,1,3.6-3.58c1.66-.52,3.84.55,3.85,2.29a7.35,7.35,0,0,1,4.72-1.74,3.13,3.13,0,0,1,2,.58c1.11.9.93,2.61.65,4a5.34,5.34,0,0,1,4.18,1.65,3.05,3.05,0,0,1-.16,4.17,4.84,4.84,0,0,1,3.72.4,2.67,2.67,0,0,1,1.11,3.32,2.79,2.79,0,0,1,4.73,2.81c.2-.52,2.16-.48,2.59-.43a13.25,13.25,0,0,1,2.73.84,5.52,5.52,0,0,1,7.7-4c.64-2.75,4.05-4.23,6.74-3.36s4.49,3.54,5,6.31-1.18,6.36-3.82,5.68a5.81,5.81,0,0,1,4.84,6.84c3.33-2.29,8.66,1.62,7.47,5.48a5,5,0,0,1,4.9-3.06,5.2,5.2,0,0,1,4.34,3.78c1.12-1,2.09-2.39,3.68-2.59,1.43-.18,3.46.42,3.82,2a6,6,0,0,1,5-4.05c2.28-.11,4.58,1.86,4.41,4.14,1.68-1.58,5-.15,5,2.15a6.64,6.64,0,0,1,10.79,5.84c0,.51-.86,2.57-.64,2.8s3-.38,3.63-.28a2.71,2.71,0,0,1,2.32,2.08c1.76-1,3.84-1.77,5.8-1.25s3.53,2.79,2.68,4.63c2.67.12,5.58,1,6.25,3.93a11.21,11.21,0,0,1-.28,4.74,5.45,5.45,0,0,1,2,6.63,5.52,5.52,0,0,1,7.1,3,5.11,5.11,0,0,1,4.17-4.45,6,6,0,0,1,5.73,2.46,7.34,7.34,0,0,1,1,6.26,6,6,0,0,1,4.07,9.8c1.92.22,2.73,2.9,1.74,4.56s-3,2.38-4.95,2.61a5.48,5.48,0,0,1-.84,7.68c2.4-.77,5.18-.87,7.28.51s3.05,4.59,1.46,6.53a5.41,5.41,0,0,1,5.79,3.92A5.93,5.93,0,0,1,479.4,266a3.9,3.9,0,0,1,2.9,2.78,2.59,2.59,0,0,1-2.24,3.07,6.72,6.72,0,0,1,3.22,3.51,4.49,4.49,0,0,1-.81,4.55,9.31,9.31,0,0,1-3.09,1.5s-317,.15-320.08.06Z" style="fill: rgb(224, 224, 224); transform-origin: 321.533px 211.637px;" id="elfxkpe6dxe3r" class="animable"></path></g><path id="freepik--floor--inject-185" d="M418.77,208.15c-93.26-62.66-244.46-62.66-337.73,0s-93.26,164.25,0,226.9,244.47,62.66,337.73,0S512,270.81,418.77,208.15Z" style="fill: rgb(245, 245, 245); transform-origin: 249.898px 321.598px;" class="animable"></path></g></g><g id="freepik--Sun--inject-185" class="animable" style="transform-origin: 127.64px 62.68px;"><circle id="freepik--sun--inject-185" cx="127.64" cy="62.68" r="18.12" style="fill: rgb(255, 189, 167); transform-origin: 127.64px 62.68px;" class="animable"></circle></g><g id="freepik--Clouds--inject-185" class="animable" style="transform-origin: 403.082px 43.051px;"><path id="freepik--Cloud--inject-185" d="M375.43,33.3c0-3.5-3.84-5.93-8.18-6.34-5.12-.48-8.75,1.8-8.87,5.83-3.35-1.37-6.88-.49-6.62,3.19-.87-1-4.12-1-5.29-.7a4.59,4.59,0,0,0-2.92,2.49,3.34,3.34,0,0,0-.3,1.88c-1.95-.64-6.39-1-7.5.76-2,3.19,5.91,3.29,7.51,2.33.33,2.47,8.82,2.88,10.87.59,1.61,1.62,3.91,2,6.4,2.12,4.2.25,6.77-1.17,10-2.84,3.56,3,9.72,3.07,12.93-.38.82.77,3.07,1,4.88.58,1.18-.28,1.46-.79,1.46-.79a10.23,10.23,0,0,0,2.17.66c2.33.48,6.66,0,4.84-2.13-.61-.71-2.88-1.16-3.84-.94-1-2-5.09-3.89-7.43-2.2-.09-2.42-2.3-4.31-5.41-4.79C379.13,32.46,376.62,32.32,375.43,33.3Z" style="fill: rgb(235, 235, 235); transform-origin: 366.337px 36.1877px;" class="animable"></path><path id="freepik--cloud--inject-185" d="M445.23,45c0-4.09-4.48-6.93-9.55-7.41-6-.56-10.21,2.1-10.35,6.81-3.91-1.61-8-.58-7.72,3.72-1-1.17-4.81-1.14-6.18-.81a5.33,5.33,0,0,0-3.4,2.9,3.86,3.86,0,0,0-.35,2.19c-2.28-.74-7.46-1.2-8.76.89-2.3,3.72,6.91,3.83,8.77,2.71.39,2.89,10.29,3.37,12.69.7,1.87,1.89,4.56,2.3,7.46,2.47,4.9.3,7.9-1.36,11.72-3.31,4.16,3.52,11.34,3.58,15.09-.45,1,.9,3.58,1.18,5.69.68,1.38-.33,1.7-.92,1.7-.92a12.2,12.2,0,0,0,2.54.76c2.72.57,7.77,0,5.65-2.47-.72-.84-3.37-1.36-4.49-1.11-1.18-2.33-5.94-4.53-8.66-2.56-.11-2.83-2.69-5-6.32-5.6C449.54,44,446.62,43.84,445.23,45Z" style="fill: rgb(245, 245, 245); transform-origin: 434.645px 48.3607px;" class="animable"></path></g><g id="freepik--Shadow--inject-185" class="animable animator-active" style="transform-origin: 250.685px 332.189px;"><path id="freepik--shadow--inject-185" d="M328.17,220.84l115.7,66.51c16.32,9.38,14.38,25.75-4.34,36.55L241.17,438.25C147.53,492.45-8.76,379.88,66.1,337.91L273.17,218.07C291.9,207.27,311.85,211.45,328.17,220.84Z" style="fill: rgb(224, 224, 224); transform-origin: 250.685px 332.189px;" class="animable"></path></g><g id="freepik--Truck--inject-185" class="animable" style="transform-origin: 246.345px 263.929px;"><g id="freepik--truck--inject-185" class="animable" style="transform-origin: 246.345px 263.929px;"><path d="M431.57,234.41a3.72,3.72,0,0,0-1.55,3.43,11.71,11.71,0,0,0,5.3,9.18,3.73,3.73,0,0,0,3.75.38L451.92,240a3.74,3.74,0,0,0,1.55-3.44,11.71,11.71,0,0,0-5.3-9.18,3.7,3.7,0,0,0-3.75-.37Z" style="fill: rgb(38, 50, 56); transform-origin: 441.745px 237.201px;" id="eliigo1ohqd8l" class="animable"></path><path d="M435.32,247a3.23,3.23,0,0,0,5.3-3.07,11.71,11.71,0,0,0-5.3-9.18,3.23,3.23,0,0,0-5.3,3.06A11.74,11.74,0,0,0,435.32,247Z" style="fill: rgb(69, 90, 100); transform-origin: 435.321px 240.876px;" id="elsrdypd80rdn" class="animable"></path><polygon points="217.3 272.51 343.11 199.87 434.65 252.74 308.86 325.38 217.3 272.51" style="fill: rgb(55, 71, 79); transform-origin: 325.975px 262.625px;" id="elv3zr8n4mgz" class="animable"></polygon><path d="M353,219.2l-102.26,59a9.06,9.06,0,0,1-8.22-.1l-6.45-3.72c-2.32-1.35-2.41-3.47-.19-4.76l102.26-59a9.11,9.11,0,0,1,8.23.11l6.44,3.72C355.17,215.79,355.25,217.92,353,219.2Z" style="fill: rgb(38, 50, 56); transform-origin: 294.453px 244.414px;" id="elicctrz1mdzq" class="animable"></path><path d="M374,231.33l-102.26,59a9.08,9.08,0,0,1-8.23-.11l-6.44-3.72c-2.33-1.34-2.41-3.46-.19-4.75l102.26-59a9.06,9.06,0,0,1,8.22.11l6.45,3.72C376.17,227.92,376.26,230.05,374,231.33Z" style="fill: rgb(38, 50, 56); transform-origin: 315.453px 256.54px;" id="eldnkvszmr3h4" class="animable"></path><path d="M395,243.46l-102.25,59a9.11,9.11,0,0,1-8.23-.11l-6.44-3.72c-2.33-1.34-2.41-3.47-.19-4.75l102.25-59a9.05,9.05,0,0,1,8.23.11l6.45,3.72C397.18,240.05,397.26,242.17,395,243.46Z" style="fill: rgb(38, 50, 56); transform-origin: 336.461px 268.666px;" id="el6jltybp8v6l" class="animable"></path><path d="M416.05,255.59l-102.25,59a9.11,9.11,0,0,1-8.23-.11l-6.45-3.72c-2.32-1.34-2.41-3.47-.19-4.75l102.26-59a9.08,9.08,0,0,1,8.23.1l6.44,3.72C418.19,252.18,418.27,254.3,416.05,255.59Z" style="fill: rgb(38, 50, 56); transform-origin: 357.492px 280.796px;" id="elgp771a9vyhv" class="animable"></path><path d="M213.4,204.64l-3.57-7.75L207,195.26l3.57,7.75a42.27,42.27,0,0,1,3.9,17.74v50.08l2.82,1.63V222.37A42.26,42.26,0,0,0,213.4,204.64Z" style="fill: rgb(69, 90, 100); transform-origin: 212.145px 233.86px;" id="elnc89zi1rhf" class="animable"></path><path d="M342,130.36l-3.57-7.74-1.63.95-127,73.32,3.57,7.75a42.26,42.26,0,0,1,3.9,17.73v50.09l128.62-74.27V148.1A42.48,42.48,0,0,0,342,130.36Z" style="fill: rgb(115, 128, 236); transform-origin: 277.845px 197.54px;" id="elvofq1qiznab" class="animable"></path><g id="el97yd8c5bhlu"><path d="M342,130.36l-3.57-7.74-1.63.95-127,73.32,3.57,7.75a42.26,42.26,0,0,1,3.9,17.73v50.09l128.62-74.27V148.1A42.48,42.48,0,0,0,342,130.36Z" style="opacity: 0.2; transform-origin: 277.845px 197.54px;" class="animable"></path></g><polygon points="209.83 196.9 338.46 122.63 335.63 121 207.01 195.27 209.83 196.9" style="fill: rgb(115, 128, 236); transform-origin: 272.735px 158.95px;" id="elth6duaoait" class="animable"></polygon><g id="el8jjxalv1agf"><polygon points="209.83 196.9 338.46 122.63 335.63 121 207.01 195.27 209.83 196.9" style="fill: rgb(255, 255, 255); opacity: 0.2; transform-origin: 272.735px 158.95px;" class="animable"></polygon></g><polygon points="325.87 110.56 202.63 181.7 205.21 183.17 328.44 112.03 325.87 110.56" style="fill: rgb(154, 74, 77); transform-origin: 265.535px 146.865px;" id="eltl4hklsbrld" class="animable"></polygon><polygon points="328.44 120.97 328.44 112.03 205.21 183.17 205.21 192.11 328.44 120.97" style="fill: rgb(177, 102, 104); transform-origin: 266.825px 152.07px;" id="elel07bma984" class="animable"></polygon><polygon points="202.63 190.63 205.21 192.11 205.21 183.17 202.63 181.7 202.63 190.63" style="fill: rgb(154, 74, 77); transform-origin: 203.92px 186.905px;" id="el7epvyzsvclw" class="animable"></polygon><polygon points="325.87 93.39 202.63 164.53 205.21 166 328.44 94.86 325.87 93.39" style="fill: rgb(154, 74, 77); transform-origin: 265.535px 129.695px;" id="elmnc0l31c7er" class="animable"></polygon><polygon points="328.44 103.8 328.44 94.86 205.21 166 205.21 174.94 328.44 103.8" style="fill: rgb(177, 102, 104); transform-origin: 266.825px 134.9px;" id="elezono758asv" class="animable"></polygon><polygon points="202.63 173.47 205.21 174.94 205.21 166 202.63 164.53 202.63 173.47" style="fill: rgb(154, 74, 77); transform-origin: 203.92px 169.735px;" id="el74xpkdkamfh" class="animable"></polygon><polygon points="264.54 111.59 202.63 147.36 205.21 148.83 267.12 113.07 264.54 111.59" style="fill: rgb(154, 74, 77); transform-origin: 234.875px 130.21px;" id="elp58s7ch5zqs" class="animable"></polygon><polygon points="267.12 122.01 267.12 113.07 205.21 148.83 205.21 157.77 267.12 122.01" style="fill: rgb(177, 102, 104); transform-origin: 236.165px 135.42px;" id="ell7vhsmxrre" class="animable"></polygon><polygon points="202.63 156.3 205.21 157.77 205.21 148.83 202.63 147.36 202.63 156.3" style="fill: rgb(154, 74, 77); transform-origin: 203.92px 152.565px;" id="elhf7taneyczk" class="animable"></polygon><polygon points="328.44 94.86 326.4 96.04 328.44 97.22 330.48 96.04 328.44 94.86" style="fill: rgb(69, 90, 100); transform-origin: 328.44px 96.04px;" id="elg60h9qdz9vf" class="animable"></polygon><polygon points="330.48 96.04 330.48 209.13 328.44 210.31 328.44 97.22 330.48 96.04" style="fill: rgb(38, 50, 56); transform-origin: 329.46px 153.175px;" id="el16jisb5re8t" class="animable"></polygon><polygon points="326.4 96.04 326.4 209.13 328.44 210.31 328.44 97.22 326.4 96.04" style="fill: rgb(55, 71, 79); transform-origin: 327.42px 153.175px;" id="eltt9djuyfoxg" class="animable"></polygon><polygon points="267.12 113.07 265.08 114.24 267.12 115.42 269.15 114.24 267.12 113.07" style="fill: rgb(69, 90, 100); transform-origin: 267.115px 114.245px;" id="el7wetplok8vi" class="animable"></polygon><polygon points="269.15 114.24 269.15 244.84 267.12 246.02 267.12 115.42 269.15 114.24" style="fill: rgb(38, 50, 56); transform-origin: 268.135px 180.13px;" id="elblv2cmy94j4" class="animable"></polygon><polygon points="265.08 114.24 265.08 244.84 267.12 246.02 267.12 115.42 265.08 114.24" style="fill: rgb(55, 71, 79); transform-origin: 266.1px 180.13px;" id="elhqdhcgubw9f" class="animable"></polygon><polygon points="437.47 254.32 437.48 183.06 343.1 128.56 343.1 199.82 437.47 254.32" style="fill: rgb(115, 128, 236); transform-origin: 390.29px 191.44px;" id="elv8d5b0mftle" class="animable"></polygon><polygon points="345.93 126.92 343.1 128.56 437.48 183.06 440.3 181.43 345.93 126.92" style="fill: rgb(115, 128, 236); transform-origin: 391.7px 154.99px;" id="el8ntuqdqifry" class="animable"></polygon><g id="eli0rasb28vch"><polygon points="345.93 126.92 343.1 128.56 437.48 183.06 440.3 181.43 345.93 126.92" style="fill: rgb(255, 255, 255); opacity: 0.2; transform-origin: 391.7px 154.99px;" class="animable"></polygon></g><polygon points="437.47 254.32 440.3 252.69 440.3 181.43 437.48 183.06 437.47 254.32" style="fill: rgb(115, 128, 236); transform-origin: 438.885px 217.875px;" id="eld34g8aii6ou" class="animable"></polygon><g id="elm1ffmmknyj"><polygon points="437.47 254.32 440.3 252.69 440.3 181.43 437.48 183.06 437.47 254.32" style="opacity: 0.2; transform-origin: 438.885px 217.875px;" class="animable"></polygon></g><polygon points="427.68 158.45 425.65 159.63 427.68 160.8 429.72 159.63 427.68 158.45" style="fill: rgb(69, 90, 100); transform-origin: 427.685px 159.625px;" id="ele52an43ji6j" class="animable"></polygon><polygon points="429.72 159.63 429.72 227.72 427.68 228.9 427.68 160.8 429.72 159.63" style="fill: rgb(38, 50, 56); transform-origin: 428.7px 194.265px;" id="el8me9o3i4rba" class="animable"></polygon><polygon points="425.65 159.63 425.65 227.72 427.68 228.9 427.68 160.8 425.65 159.63" style="fill: rgb(55, 71, 79); transform-origin: 426.665px 194.265px;" id="elg12kcp8fbom" class="animable"></polygon><polygon points="366.36 176.65 364.32 177.83 366.36 179.01 368.4 177.83 366.36 176.65" style="fill: rgb(69, 90, 100); transform-origin: 366.36px 177.83px;" id="el29mweh5slgb" class="animable"></polygon><polygon points="368.4 177.83 368.4 263.43 366.36 264.61 366.36 179.01 368.4 177.83" style="fill: rgb(38, 50, 56); transform-origin: 367.38px 221.22px;" id="el3i3p0t62g3c" class="animable"></polygon><polygon points="364.32 177.83 364.32 263.43 366.36 264.61 366.36 179.01 364.32 177.83" style="fill: rgb(55, 71, 79); transform-origin: 365.34px 221.22px;" id="el8wzkn2q9eca" class="animable"></polygon><polygon points="429.72 176.8 306.49 247.93 309.07 249.41 432.3 178.27 429.72 176.8" style="fill: rgb(154, 74, 77); transform-origin: 369.395px 213.105px;" id="elczg6s4gyqi" class="animable"></polygon><polygon points="432.3 187.21 432.3 178.27 309.07 249.41 309.07 258.35 432.3 187.21" style="fill: rgb(177, 102, 104); transform-origin: 370.685px 218.31px;" id="elxf0y7j5i5f" class="animable"></polygon><polygon points="429.72 159.63 306.49 230.76 309.07 232.24 432.3 161.1 429.72 159.63" style="fill: rgb(154, 74, 77); transform-origin: 369.395px 195.935px;" id="elxbcn759hs6r" class="animable"></polygon><polygon points="432.3 170.04 432.3 161.1 309.07 232.24 309.07 241.18 432.3 170.04" style="fill: rgb(177, 102, 104); transform-origin: 370.685px 201.14px;" id="elqo1b25nspn9" class="animable"></polygon><polygon points="368.4 177.83 306.49 213.59 309.07 215.07 370.97 179.31 368.4 177.83" style="fill: rgb(154, 74, 77); transform-origin: 338.73px 196.45px;" id="eldutks5mu7ou" class="animable"></polygon><polygon points="370.97 188.25 370.97 179.31 309.07 215.07 309.07 224.01 370.97 188.25" style="fill: rgb(177, 102, 104); transform-origin: 340.02px 201.66px;" id="eljgkwxbq6wo" class="animable"></polygon><path d="M319.13,260l-5.3,3.06a10,10,0,0,0-5,8.64v53.62l2.83,1.64V273.34a10,10,0,0,1,5-8.64l5.31-3.06Z" style="fill: rgb(69, 90, 100); transform-origin: 315.4px 293.48px;" id="elz1mbcxzo3le" class="animable"></path><polygon points="450.59 187.37 445.29 190.43 437.87 194.71 321.96 261.64 319.13 260.01 442.46 188.8 447.77 185.74 450.59 187.37" style="fill: rgb(115, 128, 236); transform-origin: 384.86px 223.69px;" id="elnvf6m13zl1h" class="animable"></polygon><g id="el8dbo4yx53lv"><polygon points="450.59 187.37 445.29 190.43 437.87 194.71 321.96 261.64 319.13 260.01 442.46 188.8 447.77 185.74 450.59 187.37" style="fill: rgb(255, 255, 255); opacity: 0.2; transform-origin: 384.86px 223.69px;" class="animable"></polygon></g><path d="M437.87,194.71,322,261.64l-5.31,3.06a10,10,0,0,0-5,8.64V327L440.3,252.68V199.06a10,10,0,0,1,5-8.63Z" style="fill: rgb(115, 128, 236); transform-origin: 378.495px 258.715px;" id="elvs9si3bkixc" class="animable"></path><g id="elgnbmdufsl7h"><path d="M437.87,194.71,322,261.64l-5.31,3.06a10,10,0,0,0-5,8.64V327L440.3,252.68V199.06a10,10,0,0,1,5-8.63Z" style="opacity: 0.2; transform-origin: 378.495px 258.715px;" class="animable"></path></g><path id="freepik--sphere-12--inject-185" d="M145.27,210.68c1.16-.67,2.76-.57,4.53.45a14.14,14.14,0,0,1,6.4,11.09c0,2-.71,3.47-1.87,4.14a9.05,9.05,0,0,1-9.06-15.68Z" style="fill: rgb(230, 230, 230); transform-origin: 148.476px 218.913px;" class="animable"></path><path d="M138.31,236.21a.61.61,0,0,1-.32-.08l-5.63-3.25a2.91,2.91,0,0,1,0-5l11-6.36a.64.64,0,0,1,.87.24.63.63,0,0,1-.24.86L133,229a1.63,1.63,0,0,0-.81,1.42,1.6,1.6,0,0,0,.81,1.41l5.63,3.25a.63.63,0,0,1-.31,1.18Z" style="fill: rgb(224, 224, 224); transform-origin: 137.626px 228.849px;" id="el7vo9l7j7eoh" class="animable"></path><path d="M136.83,327V272.82a9.08,9.08,0,0,0-4.54-7.86l-6.73-3.89a9.11,9.11,0,0,0-8.49-.32L74,281.46a25.34,25.34,0,0,0-14.34,22.82v39.9a16.46,16.46,0,0,0,8.23,14.25l7.18,4.15h0a38.86,38.86,0,0,1,15.45,16.11v-7.2h0Z" style="fill: rgb(115, 128, 236); transform-origin: 98.245px 319.272px;" id="ellgdbm63vk4" class="animable"></path><g id="elv4014555jh"><path d="M135.72,268.5c.07.14.15.28.21.42-.06-.14-.14-.28-.21-.42a9,9,0,0,0-3.43-3.54l-6.74-3.89a9.06,9.06,0,0,0-8.48-.32L74,281.47a25.32,25.32,0,0,0-10.36,9.16l29.17,16.85a25.48,25.48,0,0,1,6.8-8.9l36.07-30.08Z" style="fill: rgb(255, 255, 255); opacity: 0.1; transform-origin: 99.785px 283.665px;" class="animable"></path></g><path d="M136.83,272.82a9.07,9.07,0,0,0-1.11-4.32L99.65,298.58A25.32,25.32,0,0,0,90.55,318v53.46L136.83,327Z" style="fill: rgb(115, 128, 236); transform-origin: 113.69px 319.98px;" id="elq5h4z9cdv8r" class="animable"></path><g id="eleat3wt8hadr"><path d="M136.83,272.82a9.07,9.07,0,0,0-1.11-4.32L99.65,298.58A25.32,25.32,0,0,0,90.55,318v53.46L136.83,327Z" style="opacity: 0.2; transform-origin: 113.69px 319.98px;" class="animable"></path></g><path d="M68,303.08c-1.41.82-2.28,2.57-2.28,5.06a17.25,17.25,0,0,0,7.81,13.53c2.15,1.24,4.11,1.36,5.52.55L81.17,321c1.42-.82,2.29-2.57,2.29-5.06a17.26,17.26,0,0,0-7.81-13.52c-2.16-1.25-4.11-1.37-5.52-.55Z" style="fill: rgb(235, 235, 235); transform-origin: 74.59px 312.041px;" id="el8afv0p39zzp" class="animable"></path><path d="M73.5,321.67c2.15,1.24,4.11,1.36,5.52.55s2.29-2.57,2.29-5.06a17.28,17.28,0,0,0-7.81-13.53c-2.16-1.24-4.11-1.36-5.53-.55s-2.28,2.57-2.28,5.06A17.25,17.25,0,0,0,73.5,321.67Z" style="fill: rgb(224, 224, 224); transform-origin: 73.5px 312.65px;" id="elhgaf0kr9uqq" class="animable"></path><path d="M73.74,320.22c1.78,1.1,3.36,1.25,4.48.6s1.77-2.09,1.71-4.18a15.84,15.84,0,0,0-6.68-11.56c-1.77-1.1-3.35-1.25-4.47-.61s-1.78,2.1-1.71,4.18A15.8,15.8,0,0,0,73.74,320.22Z" style="fill: rgb(250, 250, 250); transform-origin: 73.4994px 312.649px;" id="elbmsxlcpcg8t" class="animable"></path><path d="M303.63,193.1l-75.44-43.55a22.39,22.39,0,0,0-11-2.61v43.78l98.37,56.78V213.81A23.92,23.92,0,0,0,303.63,193.1Zm-3,40.64-61.48-35.49V161L301,196.67Z" id="elx7lc6m957cl" class="animable" style="transform-origin: 266.375px 197.217px;"></path><g id="elvpfcqan6reo"><polygon points="239.13 160.98 239.13 198.25 300.95 233.94 300.95 196.67 239.13 160.98" style="fill: rgb(115, 128, 236); opacity: 0.3; transform-origin: 270.04px 197.46px;" class="animable"></polygon></g><polygon points="145.23 232.28 217.22 190.72 315.58 247.51 243.59 289.07 145.23 232.28" style="fill: rgb(38, 50, 56); transform-origin: 230.405px 239.895px;" id="ell479j2vvorb" class="animable"></polygon><path d="M217.3,239.68c-8.69-4.23-14.31.25-12.54,10S215,270.79,223.7,275s14.32-.26,12.55-10S226,243.91,217.3,239.68Zm2.08,13.14a2.24,2.24,0,0,0-2.09-.34l-7.92-8c1.13-2.41,3.93-2.79,7.79-.57,3.57,2.07,7.25,5.92,10.07,10.24l-5,1.43A10.29,10.29,0,0,0,219.38,252.82Zm-10-1.93a14.85,14.85,0,0,1-.49-3.78l7.9,8a.07.07,0,0,0,0,0,12.28,12.28,0,0,0,3,5.18l1.57,8.73C216,264.86,210.94,257.33,209.33,250.89ZM224.24,271l-1.57-8.72c1.4.33,2.1-.72,1.6-2.76a9.74,9.74,0,0,0-.67-1.78l5-1.43a30.66,30.66,0,0,1,3.11,7.49C233.48,271.07,230.17,274.2,224.24,271Z" style="fill: rgb(69, 90, 100); transform-origin: 220.505px 257.335px;" id="eljg44z4eowic" class="animable"></path><polygon points="145.23 232.28 159.38 224.12 257.74 280.9 243.59 289.07 145.23 232.28" style="fill: rgb(55, 71, 79); transform-origin: 201.485px 256.595px;" id="eldb85r1tdvpf" class="animable"></polygon><path d="M304.63,206.33l-33.16,19.14c-9,5.2-18.13,17.76-20.29,27.93l-7.59,35.67,72-41.56V212.66C315.59,205.7,310.65,202.85,304.63,206.33Zm6.53,38.61L250,280.26l5.51-25.95c1.91-9,10.22-20.41,18.17-25l33.16-19.15a5.49,5.49,0,0,1,2.65-.88c1.45,0,1.67,2.11,1.67,3.38Z" style="fill: rgb(115, 128, 236); transform-origin: 279.59px 246.958px;" id="elej1cvnsj9pg" class="animable"></path><g id="elvugxedvorf"><path d="M304.63,206.33l-33.16,19.14c-9,5.2-18.13,17.76-20.29,27.93l-7.59,35.67,72-41.56V212.66C315.59,205.7,310.65,202.85,304.63,206.33Zm6.53,38.61L250,280.26l5.51-25.95c1.91-9,10.22-20.41,18.17-25l33.16-19.15a5.49,5.49,0,0,1,2.65-.88c1.45,0,1.67,2.11,1.67,3.38Z" style="opacity: 0.2; transform-origin: 279.59px 246.958px;" class="animable"></path></g><g id="eluwivhdao9nh"><path d="M255.51,254.32c1.91-9,10.23-20.42,18.17-25l33.16-19.14a5.44,5.44,0,0,1,2.65-.89c1.45,0,1.66,2.12,1.66,3.38V245L250,280.26Z" style="fill: rgb(115, 128, 236); opacity: 0.3; transform-origin: 280.575px 244.775px;" class="animable"></path></g><path d="M309.49,210.54a3.8,3.8,0,0,1,.4,2.12v31.56l-58.07,33.52,4.93-23.16c1.84-8.67,9.89-19.74,17.56-24.17l33.16-19.14a4.35,4.35,0,0,1,2-.73m0-1.26a5.44,5.44,0,0,0-2.65.89l-33.16,19.14c-7.94,4.59-16.26,16-18.17,25L250,280.26,311.15,245V212.66c0-1.26-.21-3.38-1.66-3.38Z" style="fill: rgb(224, 224, 224); transform-origin: 280.575px 244.77px;" id="elglvcdx9ovf" class="animable"></path><path d="M206.26,149.55,173.1,168.69c-9,5.19-18.13,17.75-20.28,27.92l-7.6,35.67,72-41.56V155.88C217.22,148.92,212.28,146.07,206.26,149.55Zm6.53,38.61-61.16,35.31,5.52-25.94c1.91-9,10.23-20.42,18.17-25l33.15-19.14a5.4,5.4,0,0,1,2.66-.9c1.45,0,1.66,2.12,1.66,3.39Z" style="fill: rgb(115, 128, 236); transform-origin: 181.22px 190.173px;" id="el9mqntmrt71a" class="animable"></path><g id="elsfg06wucdpo"><path d="M206.26,149.55,173.1,168.69c-9,5.19-18.13,17.75-20.28,27.92l-7.6,35.67,72-41.56V155.88C217.22,148.92,212.28,146.07,206.26,149.55Zm6.53,38.61-61.16,35.31,5.52-25.94c1.91-9,10.23-20.42,18.17-25l33.15-19.14a5.4,5.4,0,0,1,2.66-.9c1.45,0,1.66,2.12,1.66,3.39Z" style="opacity: 0.4; transform-origin: 181.22px 190.173px;" class="animable"></path></g><g id="el53iade3zdt4"><path d="M157.15,197.53c1.91-9,10.23-20.42,18.17-25l33.15-19.14a5.61,5.61,0,0,1,2.66-.89c1.45,0,1.66,2.12,1.66,3.38v32.29l-61.16,35.31Z" style="fill: rgb(115, 128, 236); opacity: 0.3; transform-origin: 182.21px 187.99px;" class="animable"></path></g><path d="M211.12,153.76a3.62,3.62,0,0,1,.41,2.11v31.56L153.46,221l4.93-23.16c1.84-8.67,9.88-19.74,17.56-24.17l33.16-19.14a4.28,4.28,0,0,1,2-.72m0-1.27a5.61,5.61,0,0,0-2.66.89l-33.15,19.14c-7.94,4.59-16.26,16-18.17,25l-5.52,25.94,61.16-35.31V155.87c0-1.26-.21-3.38-1.66-3.38Z" style="fill: rgb(224, 224, 224); transform-origin: 182.19px 188px;" id="elthhzvh57cko" class="animable"></path><path d="M304.63,193.67l-76.44-44.12c-6-3.48-15.91-3.48-21.93,0L173.1,168.69c-9,5.19-18.13,17.75-20.28,27.92l-7.6,35.67,98.37,56.79,7.59-35.67c2.16-10.17,11.29-22.73,20.29-27.93l33.16-19.14c5.49-3.18,10.09-1.09,10.86,4.61C314.78,204.34,310.16,196.87,304.63,193.67Zm-56.2,51.42-7.9,37.1-90.31-52.14,6.52-30.67a10.14,10.14,0,0,1,15-6.67l71.87,41.5A10.13,10.13,0,0,1,248.43,245.09Z" style="fill: rgb(115, 128, 236); transform-origin: 230.355px 218.005px;" id="el7xrmob7203v" class="animable"></path><g id="elm4fhnlyey5"><path d="M315.49,210.94c-.71-6.6-5.33-14.07-10.86-17.27l-76.44-44.12c-6-3.48-15.91-3.48-21.93,0L173.1,168.69a43.71,43.71,0,0,0-12.42,11.71l98.37,56.79a43.63,43.63,0,0,1,12.42-11.72l33.16-19.14C310.12,203.15,314.72,205.24,315.49,210.94Z" style="fill: rgb(255, 255, 255); opacity: 0.2; transform-origin: 238.085px 192.065px;" class="animable"></path></g><g id="elzcvbv441ao"><path d="M248.43,245.09l-7.9,37.1-90.3-52.14,6.51-30.67a10.14,10.14,0,0,1,15-6.67l71.87,41.5A10.13,10.13,0,0,1,248.43,245.09Z" style="fill: rgb(115, 128, 236); opacity: 0.2; transform-origin: 199.442px 236.768px;" class="animable"></path></g><path d="M243.59,234.21l-38.11-22h0l-1.12-.65h0l-32.64-18.85a10.13,10.13,0,0,0-15,6.67l-6.51,30.67,42.59,24.59.57.34h0l47.14,27.21,7.9-37.1A10.13,10.13,0,0,0,243.59,234.21ZM158,199.64a8.84,8.84,0,0,1,13.1-5.83l32.88,19C199,228.3,194.32,246.27,192.58,253l-40.92-23.62Zm89.21,45.18-7.54,35.4L193.72,253.7c1.65-6.44,6.39-24.58,11.37-40.26L243,235.3A8.85,8.85,0,0,1,247.19,244.82Z" style="fill: rgb(224, 224, 224); transform-origin: 199.422px 236.765px;" id="el275i6kmexs2" class="animable"></path><path d="M243,302.91l-3.27-6a17.74,17.74,0,0,0-6.63-6.77L186,263l-42.65-24.63a7.25,7.25,0,0,0-7.29,0l-3.6,2.07-30.94,39.82a51.9,51.9,0,0,0-10.93,31.88c0,11.87,4.46,20.39,15.09,26.52s26.05,9.1,41.47,6.14a11.6,11.6,0,0,1,8.61-11.21l75.9-20.19a10.27,10.27,0,0,0,2.5-1L241.6,308A3.83,3.83,0,0,0,243,302.91Z" style="fill: rgb(115, 128, 236); transform-origin: 167.022px 291.671px;" id="elbkm9b9idya" class="animable"></path><g id="elds0o3afxy0q"><path d="M243,302.91l-3.27-6a17.74,17.74,0,0,0-6.63-6.77L186,263l-42.65-24.63a7.25,7.25,0,0,0-7.29,0l-3.6,2.07-30.94,39.82a51.9,51.9,0,0,0-10.93,31.88c0,11.87,4.46,20.39,15.09,26.52s26.05,9.1,41.47,6.14a11.6,11.6,0,0,1,8.61-11.21l75.9-20.19a10.27,10.27,0,0,0,2.5-1L241.6,308A3.83,3.83,0,0,0,243,302.91Z" style="fill: rgb(255, 255, 255); opacity: 0.2; transform-origin: 167.022px 291.671px;" class="animable"></path></g><g id="el7ft3gvcjdt5"><path d="M204.54,273.68,186,263l-42.65-24.63a7.25,7.25,0,0,0-7.29,0l-3.6,2.07-30.94,39.82a51.9,51.9,0,0,0-10.93,31.88c0,11.87,4.46,20.39,15.09,26.52a49.46,49.46,0,0,0,6.2,3c-6.91-4.8-13.9-10.28-16.45-18.22A45.12,45.12,0,0,1,94,305.25c2.73-19,18.33-31.73,34.17-54.54,2.49-3.58,7.37-8.18,11.7-8.65,2.22-.24,4.49.47,9.49,3.07C157.05,249.12,182.76,262.42,204.54,273.68Z" style="fill: rgb(255, 255, 255); opacity: 0.2; transform-origin: 147.565px 289.524px;" class="animable"></path></g><path d="M327.1,276.88v41.17l-72,41.57V318.45a36.65,36.65,0,0,0-2.51-12.15l-4.77-11a24.14,24.14,0,0,0-4.24-6.22l72-41.56a24,24,0,0,1,4.24,6.22l4.77,11A36.59,36.59,0,0,1,327.1,276.88Z" style="fill: rgb(115, 128, 236); transform-origin: 285.34px 303.57px;" id="ele6qxm3xn8wd" class="animable"></path><g id="elx2e56drnzc"><path d="M327.1,276.88v41.17l-72,41.57V318.45a36.65,36.65,0,0,0-2.51-12.15l-4.77-11a24.14,24.14,0,0,0-4.24-6.22l72-41.56a24,24,0,0,1,4.24,6.22l4.77,11A36.59,36.59,0,0,1,327.1,276.88Z" style="opacity: 0.05; transform-origin: 285.34px 303.57px;" class="animable"></path></g><path d="M252.59,306.3l-4.77-11a24.14,24.14,0,0,0-4.24-6.22,23.62,23.62,0,0,0-5.29-4.48L193.4,258.67h0l-43.29-25a11.05,11.05,0,0,0-5.47-1.4h0l-.76,0-.48,0a5.4,5.4,0,0,0-.58.08,10.44,10.44,0,0,0-1.24.24c-.39.1-.8.23-1.18.37a10.38,10.38,0,0,0-1,.4l-.17.08c-.31.16-.63.33-.93.52a9.78,9.78,0,0,0-1.81,1.39,2.29,2.29,0,0,0-.23.21,5.89,5.89,0,0,0-.42.45l-.39.48-3,3.87,3.6-2.07a7.25,7.25,0,0,1,7.29,0L186,263l47.18,27.23a17.74,17.74,0,0,1,6.63,6.77l3.27,6A3.83,3.83,0,0,1,241.6,308l-7.48,4.32a10.27,10.27,0,0,1-2.5,1l-75.9,20.19a11.6,11.6,0,0,0-8.61,11.21v59.37a64.58,64.58,0,0,1-9.39,1.11,37,37,0,0,1,20.08,5.06l4.74,2.75,92.56-53.45V318.45A36.65,36.65,0,0,0,252.59,306.3Z" style="fill: rgb(115, 128, 236); transform-origin: 193.775px 322.64px;" id="elg3wag6unoep" class="animable"></path><g id="elxdvdatrrjqi"><path d="M252.59,306.3l-4.77-11a24.14,24.14,0,0,0-4.24-6.22,23.62,23.62,0,0,0-5.29-4.48L193.4,258.67h0l-43.29-25a11.05,11.05,0,0,0-5.47-1.4h0l-.76,0-.48,0a5.4,5.4,0,0,0-.58.08,10.44,10.44,0,0,0-1.24.24c-.39.1-.8.23-1.18.37a10.38,10.38,0,0,0-1,.4l-.17.08c-.31.16-.63.33-.93.52a9.78,9.78,0,0,0-1.81,1.39,2.29,2.29,0,0,0-.23.21,5.89,5.89,0,0,0-.42.45l-.39.48-3,3.87,3.6-2.07a7.25,7.25,0,0,1,7.29,0L186,263l47.18,27.23a17.74,17.74,0,0,1,6.63,6.77l3.27,6A3.83,3.83,0,0,1,241.6,308l-7.48,4.32a10.27,10.27,0,0,1-2.5,1l-75.9,20.19a11.6,11.6,0,0,0-8.61,11.21v59.37a64.58,64.58,0,0,1-9.39,1.11,37,37,0,0,1,20.08,5.06l4.74,2.75,92.56-53.45V318.45A36.65,36.65,0,0,0,252.59,306.3Z" style="opacity: 0.05; transform-origin: 193.775px 322.64px;" class="animable"></path></g><g id="elqxnel99r0sp"><g style="opacity: 0.1; transform-origin: 249.645px 324.345px;" class="animable"><path d="M255.1,359.62c-.54-13.71-.64-27.46-.6-41.17.14-7.2-3.65-15-6.33-21.58a24.73,24.73,0,0,0-4.59-7.8,23.37,23.37,0,0,1,5.16,7.56l3.8,8.32a34.72,34.72,0,0,1,3.17,13.5c0,13.71-.07,27.46-.61,41.17Z" id="elovd65pcz9go" class="animable" style="transform-origin: 249.645px 324.345px;"></path></g></g><path d="M137.72,405.26c-12.13.53-23.63-2.36-32.08-7.23C95,391.89,90.55,383.38,90.55,371.49V312.12c0,11.87,4.46,20.39,15.09,26.52s26.05,9.1,41.47,6.14v61.33A35.24,35.24,0,0,0,137.72,405.26Z" style="fill: rgb(115, 128, 236); transform-origin: 118.83px 359.115px;" id="elagx2t1ukuwj" class="animable"></path><g id="el659xt4c2ugw"><path d="M137.72,405.26c-12.13.53-23.63-2.36-32.08-7.23C95,391.89,90.55,383.38,90.55,371.49V312.12c0,11.87,4.46,20.39,15.09,26.52s26.05,9.1,41.47,6.14v61.33A35.24,35.24,0,0,0,137.72,405.26Z" style="fill: rgb(255, 255, 255); opacity: 0.2; transform-origin: 118.83px 359.115px;" class="animable"></path></g><g id="elbmq9ibrfece"><path d="M105.64,338.64c-1.5-20.73,15.31-35.43,30.67-46.37,15.75-11.11,32.55-20.5,49.65-29.31-8.05,5.24-16.18,10.35-24.27,15.49-13.07,8.36-26.23,16.7-38,26.86-10.35,9.29-17.31,19-18.07,33.33Z" style="fill: rgb(255, 255, 255); opacity: 0.2; transform-origin: 145.753px 300.8px;" class="animable"></path></g><path d="M233.24,313.44c2.16-1,4.6-2.68,6.7-3.76l1.65-.95a4.46,4.46,0,0,0,2.23-5.55c-.48-1.12-1.31-2.41-1.83-3.44l-1.83-3.35a19.81,19.81,0,0,0-8.56-7.8L211.79,277.2c-19-10.91-47.11-27-66.16-37.71-5.89-3.8-8.1-2.21-13.18.9l0,0,.72-.41,1.45-.84,1.43-.82a7.25,7.25,0,0,1,7.29,0L186,263l47.18,27.23a17.74,17.74,0,0,1,6.63,6.77l3.27,6A3.83,3.83,0,0,1,241.6,308l-7.48,4.32a10.27,10.27,0,0,1-2.5,1l-75.9,20.19a11.61,11.61,0,0,0-8.6,11.07c0,.05,0,.09,0,.13a11.58,11.58,0,0,1,8.7-11.06L170.57,330C187.1,325.56,216.82,318.12,233.24,313.44Z" style="fill: rgb(115, 128, 236); transform-origin: 188.272px 290.989px;" id="elk5gh7q3xocd" class="animable"></path><g id="elmb4b71gsomg"><path d="M233.24,313.44c2.16-1,4.6-2.68,6.7-3.76l1.65-.95a4.46,4.46,0,0,0,2.23-5.55c-.48-1.12-1.31-2.41-1.83-3.44l-1.83-3.35a19.81,19.81,0,0,0-8.56-7.8L211.79,277.2c-19-10.91-47.11-27-66.16-37.71-5.89-3.8-8.1-2.21-13.18.9l0,0,.72-.41,1.45-.84,1.43-.82a7.25,7.25,0,0,1,7.29,0L186,263l47.18,27.23a17.74,17.74,0,0,1,6.63,6.77l3.27,6A3.83,3.83,0,0,1,241.6,308l-7.48,4.32a10.27,10.27,0,0,1-2.5,1l-75.9,20.19a11.61,11.61,0,0,0-8.6,11.07c0,.05,0,.09,0,.13a11.58,11.58,0,0,1,8.7-11.06L170.57,330C187.1,325.56,216.82,318.12,233.24,313.44Z" style="opacity: 0.2; transform-origin: 188.272px 290.989px;" class="animable"></path></g><path d="M317.93,258.3l-16.54,9.56v-4.39l13.26-7.65c1.81-1,3.28.06,3.28,2.48Z" style="fill: rgb(224, 224, 224); transform-origin: 309.66px 261.653px;" id="el276l61cqi8j" class="animable"></path><path d="M105.64,341c-6.91-4-11.21-9-13.38-15.25a35.62,35.62,0,0,0-6-10.78c-.44-.55-.82-.41-.82.29v1.78a4.11,4.11,0,0,0,.82,2.23,35.67,35.67,0,0,1,6,10.79c2.17,6.27,6.47,11.26,13.38,15.25,8.45,4.88,20,7.76,32.07,7.23a36,36,0,0,1,13.36,2,.83.83,0,0,0,1.19-.83V352a1.92,1.92,0,0,0-1.19-1.7,36,36,0,0,0-13.36-2C125.59,348.79,114.09,345.91,105.64,341Z" style="fill: rgb(69, 90, 100); transform-origin: 118.852px 334.628px;" id="elgwqzlx6wmn7" class="animable"></path><path d="M105.64,349.58c-6.91-4-11.21-9-13.38-15.25a35.67,35.67,0,0,0-6-10.79c-.44-.54-.82-.4-.82.3v1.78a4.11,4.11,0,0,0,.82,2.23,35.74,35.74,0,0,1,6,10.78c2.17,6.27,6.47,11.27,13.38,15.25,8.45,4.89,20,7.76,32.07,7.24a36,36,0,0,1,13.36,2,.84.84,0,0,0,1.19-.84V360.5a1.92,1.92,0,0,0-1.19-1.7,36,36,0,0,0-13.36-2C125.59,357.33,114.09,354.46,105.64,349.58Z" style="fill: rgb(69, 90, 100); transform-origin: 118.852px 343.204px;" id="elxmtheoikguo" class="animable"></path><path d="M105.64,358.12c-6.91-4-11.21-9-13.38-15.25a35.62,35.62,0,0,0-6-10.78c-.44-.54-.82-.4-.82.3v1.77a4.14,4.14,0,0,0,.82,2.24,35.62,35.62,0,0,1,6,10.78c2.17,6.27,6.47,11.27,13.38,15.25,8.45,4.88,20,7.76,32.07,7.23a36,36,0,0,1,13.36,2,.83.83,0,0,0,1.19-.83V369a1.92,1.92,0,0,0-1.19-1.7,36.24,36.24,0,0,0-13.36-2C125.59,365.88,114.09,363,105.64,358.12Z" style="fill: rgb(69, 90, 100); transform-origin: 118.852px 351.752px;" id="elcqhsyds6bbs" class="animable"></path><path d="M105.64,366.67c-6.91-4-11.21-9-13.38-15.25a35.62,35.62,0,0,0-6-10.78c-.44-.55-.82-.41-.82.29v1.78a4.11,4.11,0,0,0,.82,2.23,35.79,35.79,0,0,1,6,10.79C94.43,362,98.73,367,105.64,371c8.45,4.88,20,7.76,32.07,7.23a36,36,0,0,1,13.36,2,.83.83,0,0,0,1.19-.83v-1.78a1.92,1.92,0,0,0-1.19-1.7,36,36,0,0,0-13.36-2C125.59,374.43,114.09,371.55,105.64,366.67Z" style="fill: rgb(69, 90, 100); transform-origin: 118.852px 360.308px;" id="ellsnxsxz4zxl" class="animable"></path><path d="M105.64,375.22c-6.91-4-11.21-9-13.38-15.25a35.67,35.67,0,0,0-6-10.79c-.44-.54-.82-.4-.82.3v1.78a4.11,4.11,0,0,0,.82,2.23,35.67,35.67,0,0,1,6,10.79c2.17,6.27,6.47,11.26,13.38,15.25,8.45,4.88,20,7.75,32.07,7.23a36,36,0,0,1,13.36,2,.83.83,0,0,0,1.19-.84v-1.77a1.92,1.92,0,0,0-1.19-1.7,36,36,0,0,0-13.36-2C125.59,383,114.09,380.1,105.64,375.22Z" style="fill: rgb(69, 90, 100); transform-origin: 118.853px 368.848px;" id="el1av121bt4xl" class="animable"></path><polygon points="440.24 270.55 411.45 253.96 411.45 236.14 440.24 252.73 440.24 270.55" id="eluzfqbtj6nql" class="animable" style="transform-origin: 425.845px 253.345px;"></polygon><path d="M423.88,266.48,429,256.37l-12.1-7h0c-3.85-2.22-9-2-14.61,1.28-12,6.91-21.65,24.71-21.65,39.77,0,7.89,2.66,13.45,6.91,16h0l.18.09,0,0,12.41,7.16L405.49,303C415.64,295.24,423.49,279.91,423.88,266.48Z" style="fill: rgb(55, 71, 79); transform-origin: 404.82px 280.789px;" id="ello0htvofkp" class="animable"></path><path d="M423.88,266.48,429,256.37l-12.1-7h0c-3.85-2.22-9-2-14.61,1.28-12,6.91-21.65,24.71-21.65,39.77,0,7.89,2.66,13.45,6.91,16h0l.18.09,0,0,12.41,7.16L405.49,303C415.64,295.24,423.49,279.91,423.88,266.48Z" style="fill: rgb(38, 50, 56); transform-origin: 404.82px 280.789px;" id="el3ogop4fq3q" class="animable"></path><path d="M436.5,272.69c0,13-7.21,28-16.86,36.33l0,0a31.73,31.73,0,0,1-4.75,3.4c-12,6.91-21.65.29-21.64-14.77,0-11.37,5.53-24.33,13.39-32.95l.07-.07a34.91,34.91,0,0,1,8.18-6.74C426.81,251,436.5,257.64,436.5,272.69Z" style="fill: rgb(55, 71, 79); transform-origin: 414.875px 285.163px;" id="el6pfafn49idu" class="animable"></path><path d="M436.5,272.69c0,13-7.21,28-16.86,36.33l0,0a31.73,31.73,0,0,1-4.75,3.4c-12,6.91-21.65.29-21.64-14.77,0-11.37,5.53-24.33,13.39-32.95l.07-.07a34.91,34.91,0,0,1,8.18-6.74C426.81,251,436.5,257.64,436.5,272.69Z" style="fill: rgb(55, 71, 79); transform-origin: 414.875px 285.163px;" id="elljeqkmeipd" class="animable"></path><path d="M414.85,267c7.61-4.4,13.78.18,13.78,10.22s-6.17,21.74-13.78,26.14-13.77-.19-13.77-10.23S407.25,271.41,414.85,267Z" style="fill: rgb(69, 90, 100); transform-origin: 414.855px 285.179px;" id="el2mcd16e1bwx" class="animable"></path><path d="M421.08,282.42c-.52,5-3.74,10.28-7.17,11.81a3.35,3.35,0,0,1-3.75-.31c-1.21-1-1.82-3.14-1.53-5.95.52-5,3.73-10.29,7.17-11.82a3.93,3.93,0,0,1,2.52-.33h0C420.31,276.31,421.46,278.78,421.08,282.42Z" style="fill: rgb(250, 250, 250); transform-origin: 414.855px 285.203px;" id="eljstiydwz7vb" class="animable"></path><path d="M419.85,281.77c-.52,5-3.74,10.29-7.17,11.82a3.93,3.93,0,0,1-2.52.33c-1.21-1-1.82-3.14-1.53-5.95.52-5,3.73-10.29,7.17-11.82a3.93,3.93,0,0,1,2.52-.33h0C419.53,276.87,420.14,279,419.85,281.77Z" style="fill: rgb(224, 224, 224); transform-origin: 414.24px 284.87px;" id="el4pq8uimg3s" class="animable"></path><path d="M436.5,272.69c0,13-7.21,28-16.86,36.33a61.33,61.33,0,0,0,13.73-26.57c1.83-8.68,1.15-21.14-6.31-24.29s-17.28,3.49-20.39,6.51a34.91,34.91,0,0,1,8.18-6.74C426.81,251,436.5,257.64,436.5,272.69Z" style="fill: rgb(69, 90, 100); transform-origin: 421.585px 282.101px;" id="elvg45c1uevde" class="animable"></path><path d="M444.35,240.05v23.44a8.14,8.14,0,0,1-4.05,7l-.07,0c-.7-11.55-7.1-19.16-16.36-19.16a21.86,21.86,0,0,0-10.9,3.24,38.47,38.47,0,0,0-9,7.38l-.06.05-.1.12c-8.74,9.59-14.38,23.53-14.38,35.51,0,.73,0,1.46.06,2.16l-5.74,3.31-15.43-8.9V266.13c0-14,9.83-31,21.93-38L407,218.48c6.05-3.5,11.52-3.83,15.5-1.55l15.1,8.74a1.93,1.93,0,0,1,.34.19,10.88,10.88,0,0,1,3.24,2.9,11.39,11.39,0,0,1,1,1.57c.14.24.27.49.4.76a15.42,15.42,0,0,1,.81,2.11c.1.3.19.61.26.92s.14.56.21.85.07.38.11.58a22.26,22.26,0,0,1,.32,2.69q0,.36,0,.75C444.34,239.34,444.35,239.69,444.35,240.05Z" style="fill: rgb(115, 128, 236); transform-origin: 406.335px 259.29px;" id="elh2l0nrru42g" class="animable"></path><g id="el2yeson1mzbe"><path d="M437.59,225.67c-3.94-2.09-9.28-1.69-15.17,1.72l-16.76,9.67c-6.06,3.5-11.52,9.48-15.51,16.36l-15.43-8.9c4-6.88,9.46-12.88,15.51-16.37L407,218.48c6.05-3.5,11.52-3.83,15.5-1.55Z" style="fill: rgb(255, 255, 255); opacity: 0.1; transform-origin: 406.155px 234.45px;" class="animable"></path></g><path d="M444.35,240.05v23.44a8.14,8.14,0,0,1-4.05,7l-.07,0c-.7-11.55-7.1-19.16-16.36-19.16a21.86,21.86,0,0,0-10.9,3.24,38.47,38.47,0,0,0-9,7.38l-.06.05-.1.12c-8.74,9.59-14.38,23.53-14.38,35.51,0,.73,0,1.46.06,2.16l-5.74,3.31V275c0-14,9.81-31,21.93-38l16.76-9.67c5.89-3.41,11.23-3.81,15.17-1.72a1.93,1.93,0,0,1,.34.19,11.6,11.6,0,0,1,4.25,4.47c.14.24.27.49.4.76a15.42,15.42,0,0,1,.81,2.11c.1.3.19.61.26.92s.14.56.21.85.07.38.11.58a22.26,22.26,0,0,1,.32,2.69q0,.36,0,.75C444.34,239.34,444.35,239.69,444.35,240.05Z" style="fill: rgb(115, 128, 236); transform-origin: 414.05px 263.715px;" id="elg7jnlyo7rzo" class="animable"></path><g id="el3s6nd1oy3m3"><path d="M444.35,240.05v23.44a8.14,8.14,0,0,1-4.05,7l-.07,0c-.7-11.55-7.1-19.16-16.36-19.16a21.86,21.86,0,0,0-10.9,3.24,38.47,38.47,0,0,0-9,7.38l-.06.05-.1.12c-8.74,9.59-14.38,23.53-14.38,35.51,0,.73,0,1.46.06,2.16l-5.74,3.31V275c0-14,9.81-31,21.93-38l16.76-9.67c5.89-3.41,11.23-3.81,15.17-1.72a1.93,1.93,0,0,1,.34.19,11.6,11.6,0,0,1,4.25,4.47c.14.24.27.49.4.76a15.42,15.42,0,0,1,.81,2.11c.1.3.19.61.26.92s.14.56.21.85.07.38.11.58a22.26,22.26,0,0,1,.32,2.69q0,.36,0,.75C444.34,239.34,444.35,239.69,444.35,240.05Z" style="opacity: 0.2; transform-origin: 414.05px 263.715px;" class="animable"></path></g><path d="M382.81,266.85a108.15,108.15,0,0,0,.92,24.21c.69-7.05,1.85-15.14,3.91-21.63,4.16-13.15,11.68-22.92,21.69-30.85a48.26,48.26,0,0,1,16-8.35,50.12,50.12,0,0,1,9.73-1.89c2.75-.15,5.78.08,3.11-2a16,16,0,0,0-7.54-3.15,28.36,28.36,0,0,0-8.42.49,43,43,0,0,0-12.23,4.7A54,54,0,0,0,392.48,243C387.53,249.59,383.58,258.79,382.81,266.85Z" style="fill: rgb(115, 128, 236); transform-origin: 410.858px 257.066px;" id="el5l67x5lxfwu" class="animable"></path><g id="elaajxc80o5ke"><path d="M382.81,266.85a108.15,108.15,0,0,0,.92,24.21c.69-7.05,1.85-15.14,3.91-21.63,4.16-13.15,11.68-22.92,21.69-30.85a48.26,48.26,0,0,1,16-8.35,50.12,50.12,0,0,1,9.73-1.89c2.75-.15,5.78.08,3.11-2a16,16,0,0,0-7.54-3.15,28.36,28.36,0,0,0-8.42.49,43,43,0,0,0-12.23,4.7A54,54,0,0,0,392.48,243C387.53,249.59,383.58,258.79,382.81,266.85Z" style="opacity: 0.1; transform-origin: 410.858px 257.066px;" class="animable"></path></g><polygon points="383.73 303.16 234.53 389.31 234.54 383.37 383.73 297.22 383.73 303.16" style="fill: rgb(55, 71, 79); transform-origin: 309.13px 343.265px;" id="elcraee9qhbu" class="animable"></polygon><polygon points="368.31 288.32 383.73 297.22 234.54 383.37 219.11 374.46 368.31 288.32" style="fill: rgb(69, 90, 100); transform-origin: 301.42px 335.845px;" id="el3wc5cas23v9" class="animable"></polygon><polygon points="233.58 389.86 204.79 373.27 204.79 355.45 233.58 372.04 233.58 389.86" id="elulyl345g18" class="animable" style="transform-origin: 219.185px 372.655px;"></polygon><path d="M217.23,385.75l5.09-10.1-12.11-7h0c-3.85-2.21-9-2-14.61,1.29C183.65,376.83,174,394.64,174,409.7c0,7.89,2.66,13.45,6.91,16h0l.17.1,0,0L193.47,433l5.36-10.66C209,414.52,216.84,399.19,217.23,385.75Z" style="fill: rgb(55, 71, 79); transform-origin: 198.16px 400.097px;" id="el4on0hd7x9vl" class="animable"></path><path d="M217.23,385.75l5.09-10.1-12.11-7h0c-3.85-2.21-9-2-14.61,1.29C183.65,376.83,174,394.64,174,409.7c0,7.89,2.66,13.45,6.91,16h0l.17.1,0,0L193.47,433l5.36-10.66C209,414.52,216.84,399.19,217.23,385.75Z" style="fill: rgb(38, 50, 56); transform-origin: 198.16px 400.097px;" id="elqvbsfcgnzde" class="animable"></path><path d="M229.85,392c0,13-7.21,28-16.86,36.33l0,0a31.73,31.73,0,0,1-4.75,3.4c-12,6.91-21.66.29-21.65-14.77,0-11.37,5.54-24.33,13.39-33A.46.46,0,0,0,200,384a35.05,35.05,0,0,1,8.19-6.75C220.16,370.3,229.85,376.91,229.85,392Z" style="fill: rgb(55, 71, 79); transform-origin: 208.22px 404.477px;" id="el1ejyi6v0x3d" class="animable"></path><path d="M229.85,392c0,13-7.21,28-16.86,36.33l0,0a31.73,31.73,0,0,1-4.75,3.4c-12,6.91-21.66.29-21.65-14.77,0-11.37,5.54-24.33,13.39-33A.46.46,0,0,0,200,384a35.05,35.05,0,0,1,8.19-6.75C220.16,370.3,229.85,376.91,229.85,392Z" style="fill: rgb(55, 71, 79); transform-origin: 208.22px 404.477px;" id="elouneg1m2a1e" class="animable"></path><path d="M208.2,386.29c7.61-4.39,13.78.19,13.78,10.23s-6.17,21.74-13.78,26.13-13.78-.18-13.78-10.22S200.59,390.69,208.2,386.29Z" style="fill: rgb(69, 90, 100); transform-origin: 208.2px 404.471px;" id="elo545minu9u" class="animable"></path><path d="M214.42,401.69c-.52,5-3.73,10.29-7.17,11.82a3.33,3.33,0,0,1-3.74-.31c-1.21-1-1.83-3.15-1.54-5.95.53-5,3.73-10.29,7.18-11.82a3.87,3.87,0,0,1,2.52-.33s0,0,0,0C213.65,395.59,214.81,398.06,214.42,401.69Z" style="fill: rgb(250, 250, 250); transform-origin: 208.197px 404.481px;" id="el1eza4rf131h" class="animable"></path><path d="M213.2,401.05c-.53,5-3.74,10.29-7.18,11.82a4,4,0,0,1-2.51.33c-1.21-1-1.83-3.15-1.54-5.95.53-5,3.73-10.29,7.18-11.82a3.87,3.87,0,0,1,2.52-.33s0,0,0,0C212.87,396.14,213.49,398.25,213.2,401.05Z" style="fill: rgb(224, 224, 224); transform-origin: 207.585px 404.146px;" id="elegs979jq3s" class="animable"></path><path d="M229.85,392c0,13-7.21,28-16.86,36.33a61.54,61.54,0,0,0,13.73-26.57c1.83-8.68,1.14-21.15-6.31-24.29S203.12,380.92,200,384a35.05,35.05,0,0,1,8.19-6.75C220.16,370.3,229.85,376.91,229.85,392Z" style="fill: rgb(69, 90, 100); transform-origin: 214.925px 401.408px;" id="elu2ithyjifxa" class="animable"></path><path d="M239.68,357.17v24.5a8.12,8.12,0,0,1-.25,2,2.12,2.12,0,0,1-.1.36,3.52,3.52,0,0,1-.22.62,1.09,1.09,0,0,1-.09.23,2.42,2.42,0,0,1-.19.4,8,8,0,0,1-1.15,1.74,4.51,4.51,0,0,1-.37.39,8.61,8.61,0,0,1-1.68,1.29l-2,1.19c-.69-11.57-7.09-19.19-16.37-19.19a21.86,21.86,0,0,0-10.9,3.24,38.67,38.67,0,0,0-9,7.38l-.06,0-.1.11c-8.74,9.6-14.38,23.54-14.38,35.52,0,.54,0,1.08,0,1.62-.52.15-1,.27-1.56.38l-.24,0-.53.09a16.28,16.28,0,0,1-2.5.19,17.52,17.52,0,0,1-8.72-2.34l-11.44-6.61a38.22,38.22,0,0,0-10.69-4.2V344.78a8.35,8.35,0,0,1,5.61-7.89l47.7-12.56a18.87,18.87,0,0,1,17.86,4.55c2.66,2.5,12.73,11.92,15.48,14.51l0,0c.22.2.43.42.63.63a18.58,18.58,0,0,1,3.7,5.52c.13.3.25.59.35.88s.22.59.32.9.19.6.27.92A18.72,18.72,0,0,1,239.68,357.17Z" style="fill: rgb(115, 128, 236); transform-origin: 193.41px 371.461px;" id="el1pgozqgikc6" class="animable"></path><g id="elh13yixnx79t"><path d="M233.76,343.39a18.91,18.91,0,0,0-21.3-3.33l-20.15,9.69a25.48,25.48,0,0,0-10.37,9.19l-33.16-19.15a8.36,8.36,0,0,1,3.94-2.9l47.7-12.56a18.87,18.87,0,0,1,17.86,4.55C220.94,331.38,231,340.8,233.76,343.39Z" style="fill: rgb(255, 255, 255); opacity: 0.1; transform-origin: 191.27px 341.316px;" class="animable"></path></g><path d="M239.68,357.17v24.5a8.12,8.12,0,0,1-.25,2,2.12,2.12,0,0,1-.1.36,3.52,3.52,0,0,1-.22.62,1.09,1.09,0,0,1-.09.23,2.42,2.42,0,0,1-.19.4,8,8,0,0,1-1.15,1.74,4.51,4.51,0,0,1-.37.39,8.61,8.61,0,0,1-1.68,1.29l-2,1.19c-.69-11.57-7.09-19.19-16.37-19.19a21.86,21.86,0,0,0-10.9,3.24,38.67,38.67,0,0,0-9,7.38l-.06,0-.1.11c-8.74,9.6-14.38,23.54-14.38,35.52,0,.54,0,1.08,0,1.62-.52.15-1,.27-1.56.38l-.77.11a16.28,16.28,0,0,1-2.5.19v-46.7a25.34,25.34,0,0,1,14.35-22.82l20.15-9.69a18.91,18.91,0,0,1,21.3,3.33l0,0c.22.2.43.42.63.63a18.58,18.58,0,0,1,3.7,5.52c.13.3.25.59.35.88s.22.59.32.9.19.6.27.92A18.72,18.72,0,0,1,239.68,357.17Z" style="fill: rgb(115, 128, 236); transform-origin: 208.835px 378.698px;" id="elv5kws0rrr2" class="animable"></path><g id="elkeykr5wkhi"><path d="M239.68,357.17v24.5a8.12,8.12,0,0,1-.25,2,2.12,2.12,0,0,1-.1.36,3.52,3.52,0,0,1-.22.62,1.09,1.09,0,0,1-.09.23,2.42,2.42,0,0,1-.19.4,8,8,0,0,1-1.15,1.74,4.51,4.51,0,0,1-.37.39,8.61,8.61,0,0,1-1.68,1.29l-2,1.19c-.69-11.57-7.09-19.19-16.37-19.19a21.86,21.86,0,0,0-10.9,3.24,38.67,38.67,0,0,0-9,7.38l-.06,0-.1.11c-8.74,9.6-14.38,23.54-14.38,35.52,0,.54,0,1.08,0,1.62-.52.15-1,.27-1.56.38l-.77.11a16.28,16.28,0,0,1-2.5.19v-46.7a25.34,25.34,0,0,1,14.35-22.82l20.15-9.69c6.63-3.79,15.45-1.84,21.3,3.33l0,0c.22.2.43.42.63.63a18.58,18.58,0,0,1,3.7,5.52c.13.3.25.59.35.88s.22.59.32.9.19.6.27.92A18.72,18.72,0,0,1,239.68,357.17Z" style="opacity: 0.2; transform-origin: 208.835px 378.655px;" class="animable"></path></g><path d="M156.78,354.38c-1.42.82-2.29,2.57-2.29,5.06A17.26,17.26,0,0,0,162.3,373c2.16,1.25,4.11,1.37,5.52.55l2.16-1.24c1.41-.82,2.28-2.57,2.29-5.06a17.29,17.29,0,0,0-7.82-13.53c-2.15-1.24-4.1-1.36-5.52-.54Z" style="fill: rgb(235, 235, 235); transform-origin: 163.38px 363.365px;" id="el82o568yrj4w" class="animable"></path><path d="M162.3,373c2.16,1.25,4.11,1.37,5.52.55s2.29-2.56,2.29-5.06a17.26,17.26,0,0,0-7.81-13.52c-2.16-1.25-4.11-1.37-5.52-.55s-2.29,2.57-2.29,5.06A17.26,17.26,0,0,0,162.3,373Z" style="fill: rgb(224, 224, 224); transform-origin: 162.3px 363.985px;" id="el67wwszly8ck" class="animable"></path><path d="M162.54,371.51c1.78,1.11,3.36,1.26,4.48.61s1.78-2.09,1.71-4.18a15.75,15.75,0,0,0-6.68-11.56c-1.77-1.1-3.35-1.26-4.47-.61s-1.78,2.09-1.71,4.18A15.77,15.77,0,0,0,162.54,371.51Z" style="fill: rgb(250, 250, 250); transform-origin: 162.3px 363.946px;" id="elatz6icqpgbg" class="animable"></path><path d="M176,379.12a155.87,155.87,0,0,0,2,24.73c.69-7.05.94-13.59,2.24-20.27,2.41-12.35,8.78-24.28,18.79-32.21A48.31,48.31,0,0,1,215,343a50.22,50.22,0,0,1,9.74-1.89c2.75-.15,5.78.07,3.11-2a15.91,15.91,0,0,0-7.55-3.15,28.29,28.29,0,0,0-8.41.48,42.94,42.94,0,0,0-12.23,4.71,53.76,53.76,0,0,0-17.49,14.57C177.19,362.37,176,371,176,379.12Z" style="fill: rgb(115, 128, 236); transform-origin: 202.442px 369.845px;" id="eltohikr009v" class="animable"></path><g id="elqeaeozgpdak"><path d="M176,379.12a155.87,155.87,0,0,0,2,24.73c.69-7.05.94-13.59,2.24-20.27,2.41-12.35,8.78-24.28,18.79-32.21A48.31,48.31,0,0,1,215,343a50.22,50.22,0,0,1,9.74-1.89c2.75-.15,5.78.07,3.11-2a15.91,15.91,0,0,0-7.55-3.15,28.29,28.29,0,0,0-8.41.48,42.94,42.94,0,0,0-12.23,4.71,53.76,53.76,0,0,0-17.49,14.57C177.19,362.37,176,371,176,379.12Z" style="opacity: 0.1; transform-origin: 202.442px 369.845px;" class="animable"></path></g><path d="M148.48,410.89,44.26,350.71a10.14,10.14,0,0,1-5.06-8.77v17.81h0a10.13,10.13,0,0,0,5.06,8.77L148.48,428.7a38.41,38.41,0,0,0,19.19,5.15V416A38.4,38.4,0,0,1,148.48,410.89Z" style="fill: rgb(224, 224, 224); transform-origin: 103.435px 387.895px;" id="el2sxofpvnxrg" class="animable"></path><g id="elobk6198dxra"><path d="M148.48,410.89,44.26,350.71a10.14,10.14,0,0,1-5.06-8.77v17.81h0a10.13,10.13,0,0,0,5.06,8.77L148.48,428.7a38.41,38.41,0,0,0,19.19,5.15V416A38.4,38.4,0,0,1,148.48,410.89Z" style="opacity: 0.1; transform-origin: 103.435px 387.895px;" class="animable"></path></g><path d="M167.67,412.87V416a38.31,38.31,0,0,1-19.19-5.15L44.26,350.71a10.11,10.11,0,0,1-5.06-8.77h3.16a7,7,0,0,0,3.48,6l104.22,60.17A35.29,35.29,0,0,0,167.67,412.87Z" style="fill: rgb(245, 245, 245); transform-origin: 103.435px 378.97px;" id="elrwirtyu70bl" class="animable"></path><path d="M76.72,352.28a.66.66,0,0,0,.68-.07,2.11,2.11,0,0,0,1-1.66.67.67,0,0,0-.28-.63l-9.51-5.49a.69.69,0,0,0-.68.07,2.15,2.15,0,0,0-1,1.67.67.67,0,0,0,.28.62Z" style="fill: rgb(245, 245, 245); transform-origin: 72.6655px 348.357px;" id="el4mmzmzkjqpc" class="animable"></path><path d="M78.36,350.55a.67.67,0,0,0-.28-.63.69.69,0,0,0-.68.07,2.13,2.13,0,0,0-1,1.67.69.69,0,0,0,.28.62.66.66,0,0,0,.68-.07A2.11,2.11,0,0,0,78.36,350.55Z" style="fill: rgb(69, 90, 100); transform-origin: 77.3811px 351.102px;" id="elirq5lueqp0h" class="animable"></path><path d="M76.72,360.33a.69.69,0,0,0,.68-.07,2.13,2.13,0,0,0,1-1.67.66.66,0,0,0-.28-.62l-9.51-5.49a.69.69,0,0,0-.68.07,2.13,2.13,0,0,0-1,1.66.69.69,0,0,0,.28.63Z" style="fill: rgb(245, 245, 245); transform-origin: 72.6654px 356.405px;" id="elxeyi96egm19" class="animable"></path><path d="M78.36,358.59a.58.58,0,0,0-1-.55,2.11,2.11,0,0,0-1,1.66.69.69,0,0,0,.28.63.69.69,0,0,0,.68-.07A2.13,2.13,0,0,0,78.36,358.59Z" style="fill: rgb(69, 90, 100); transform-origin: 77.3731px 359.107px;" id="el6eeg1dmlu15" class="animable"></path><path d="M77.48,343.37a1.25,1.25,0,0,0-1.23,0,4.37,4.37,0,0,0-2.13,3.12L68.8,387.24a3.27,3.27,0,0,0,1.6,3.32l2.16,1.25a3.25,3.25,0,0,0,3.33,0l4.37-2.52V345.69a1.21,1.21,0,0,0-.45-.95.91.91,0,0,0-.16-.11C79.29,344.41,77.54,343.4,77.48,343.37Z" style="fill: rgb(235, 235, 235); transform-origin: 74.5118px 367.739px;" id="elyt5w10lnor8" class="animable"></path><path d="M80.26,389.31l-4.37,2.52A3.31,3.31,0,0,1,71,388.49l5.32-40.75a4.35,4.35,0,0,1,2.13-3.12h0a1.24,1.24,0,0,1,1.85,1.07Z" style="fill: rgb(235, 235, 235); transform-origin: 75.6348px 368.354px;" id="elbzfijomwfeu" class="animable"></path><g id="elinwx6pbt94"><path d="M80.26,389.31l-4.37,2.52A3.31,3.31,0,0,1,71,388.49l5.32-40.75a4.35,4.35,0,0,1,2.13-3.12h0a1.24,1.24,0,0,1,1.85,1.07Z" style="opacity: 0.1; transform-origin: 75.6348px 368.354px;" class="animable"></path></g><path d="M117.31,375.72a.69.69,0,0,0,.68-.07,2.13,2.13,0,0,0,1-1.67.69.69,0,0,0-.28-.62L79,350.45a.66.66,0,0,0-.68.07,2.11,2.11,0,0,0-1,1.66.69.69,0,0,0,.28.63Z" style="fill: rgb(245, 245, 245); transform-origin: 98.1545px 363.083px;" id="elrne60evurr" class="animable"></path><path d="M119,374a.69.69,0,0,0-.28-.62.66.66,0,0,0-.68.07,2.11,2.11,0,0,0-1,1.66.58.58,0,0,0,1,.56A2.13,2.13,0,0,0,119,374Z" style="fill: rgb(69, 90, 100); transform-origin: 118.003px 374.604px;" id="elfajve4ryik7" class="animable"></path><path d="M117.31,383.76a.68.68,0,0,0,.68-.06,2.15,2.15,0,0,0,1-1.67.67.67,0,0,0-.28-.62L79,358.5a.68.68,0,0,0-.68.06,2.15,2.15,0,0,0-1,1.67.67.67,0,0,0,.28.62Z" style="fill: rgb(245, 245, 245); transform-origin: 98.155px 371.13px;" id="ellpjq1ss00p" class="animable"></path><path d="M119,382a.67.67,0,0,0-.28-.62.68.68,0,0,0-.68.06,2.15,2.15,0,0,0-1,1.67.67.67,0,0,0,.28.62.68.68,0,0,0,.68-.06A2.15,2.15,0,0,0,119,382Z" style="fill: rgb(69, 90, 100); transform-origin: 118.02px 382.555px;" id="elzv75l7x3i6a" class="animable"></path><path d="M118.62,367.12a1.23,1.23,0,0,0-1.23,0,4.35,4.35,0,0,0-2.13,3.12L109.94,411a3.27,3.27,0,0,0,1.6,3.32l2.16,1.25a3.25,3.25,0,0,0,3.33,0l4.37-2.52V369.44a1.24,1.24,0,0,0-.45-1l-.16-.11Z" style="fill: rgb(235, 235, 235); transform-origin: 115.652px 391.492px;" id="el3lunaz2z9vc" class="animable"></path><path d="M121.4,413.06,117,415.58a3.31,3.31,0,0,1-4.93-3.35l5.32-40.74a4.35,4.35,0,0,1,2.13-3.12h0a1.23,1.23,0,0,1,1.85,1.07Z" style="fill: rgb(235, 235, 235); transform-origin: 116.717px 392.113px;" id="elda7fyaut35w" class="animable"></path><g id="el9e24jyndfyt"><path d="M121.4,413.06,117,415.58a3.31,3.31,0,0,1-4.93-3.35l5.32-40.74a4.35,4.35,0,0,1,2.13-3.12h0a1.23,1.23,0,0,1,1.85,1.07Z" style="opacity: 0.1; transform-origin: 116.717px 392.113px;" class="animable"></path></g><path d="M127.93,381.85a.69.69,0,0,0,.68-.07,2.13,2.13,0,0,0,1-1.67.69.69,0,0,0-.28-.62l-9-5.21a.69.69,0,0,0-.68.07,2.11,2.11,0,0,0-1,1.67.67.67,0,0,0,.29.62Z" style="fill: rgb(245, 245, 245); transform-origin: 124.13px 378.065px;" id="eljhahexd5h3j" class="animable"></path><g id="elr8wtfm5yfm"><path d="M129.57,380.11a.69.69,0,0,0-.28-.62.66.66,0,0,0-.68.07,2.1,2.1,0,0,0-1,1.66.68.68,0,0,0,.29.63.69.69,0,0,0,.68-.07A2.13,2.13,0,0,0,129.57,380.11Z" style="opacity: 0.1; transform-origin: 128.59px 380.668px;" class="animable"></path></g><path d="M127.93,389.89a.66.66,0,0,0,.68-.07,2.11,2.11,0,0,0,1-1.66.67.67,0,0,0-.28-.62l-9-5.21a.66.66,0,0,0-.68.07,2.1,2.1,0,0,0-1,1.66.68.68,0,0,0,.29.63Z" style="fill: rgb(245, 245, 245); transform-origin: 124.13px 386.11px;" id="elfjwzh3pdnh" class="animable"></path><g id="elrmz2gs5kbb"><path d="M129.57,388.16a.59.59,0,0,0-1-.56,2.13,2.13,0,0,0-1,1.67.59.59,0,0,0,1,.55A2.11,2.11,0,0,0,129.57,388.16Z" style="opacity: 0.1; transform-origin: 128.572px 388.708px;" class="animable"></path></g><path d="M244,294.84l-1.16.65a1.31,1.31,0,0,0-.49,1.74l1.26,2.29a1.24,1.24,0,0,0,1.71.48l1.15-.65a1.29,1.29,0,0,0,.49-1.74l-1.25-2.29A1.24,1.24,0,0,0,244,294.84Z" style="fill: rgb(224, 224, 224); transform-origin: 244.658px 297.42px;" id="el7x9hox6d2a" class="animable"></path><path d="M244.22,294.66l-1.15.65a1.29,1.29,0,0,0-.49,1.74l1.25,2.29a1.24,1.24,0,0,0,1.71.48l1.16-.65a1.31,1.31,0,0,0,.49-1.74l-1.26-2.29A1.24,1.24,0,0,0,244.22,294.66Z" style="fill: rgb(250, 250, 250); transform-origin: 244.882px 297.24px;" id="elphvk56h6irr" class="animable"></path><path id="freepik--sphere-12--inject-185" d="M268.66,282c1.16-.67,2.76-.57,4.53.45a14.17,14.17,0,0,1,6.4,11.09c0,2-.71,3.47-1.87,4.14A9.05,9.05,0,0,1,268.66,282Z" style="fill: rgb(230, 230, 230); transform-origin: 271.863px 290.235px;" class="animable"></path><path d="M252.67,301a8.7,8.7,0,0,1-4.34-1.15l-3.6-2.08a.63.63,0,0,1,.63-1.1l3.61,2.08a7.39,7.39,0,0,0,7.39,0l10.42-6a.63.63,0,1,1,.63,1.09l-10.41,6A8.69,8.69,0,0,1,252.67,301Z" style="fill: rgb(224, 224, 224); transform-origin: 256.08px 296.826px;" id="elgvee8zln2yu" class="animable"></path></g></g><defs>     <filter id="active" height="200%">         <feMorphology in="SourceAlpha" result="DILATED" operator="dilate" radius="2"></feMorphology>                <feFlood flood-color="#32DFEC" flood-opacity="1" result="PINK"></feFlood>        <feComposite in="PINK" in2="DILATED" operator="in" result="OUTLINE"></feComposite>        <feMerge>            <feMergeNode in="OUTLINE"></feMergeNode>            <feMergeNode in="SourceGraphic"></feMergeNode>        </feMerge>    </filter>    <filter id="hover" height="200%">        <feMorphology in="SourceAlpha" result="DILATED" operator="dilate" radius="2"></feMorphology>                <feFlood flood-color="#ff0000" flood-opacity="0.5" result="PINK"></feFlood>        <feComposite in="PINK" in2="DILATED" operator="in" result="OUTLINE"></feComposite>        <feMerge>            <feMergeNode in="OUTLINE"></feMergeNode>            <feMergeNode in="SourceGraphic"></feMergeNode>        </feMerge>            <feColorMatrix type="matrix" values="0   0   0   0   0                0   1   0   0   0                0   0   0   0   0                0   0   0   1   0 "></feColorMatrix>    </filter></defs></svg>